<svg width="47" height="45" viewBox="0 0 47 45" fill="none" xmlns="http://www.w3.org/2000/svg">
<g clip-path="url(#clip0_414_2)">
<path fill-rule="evenodd" clip-rule="evenodd" d="M23.45 0.0499029C23.4667 7.36704 23.45 14.6841 23.4 22.0011C20.7274 19.2183 18.0774 16.4245 15.45 13.6197C17.5322 9.39803 19.6156 5.17405 21.7 0.947907C22.1101 0.319224 22.6934 0.0198896 23.45 0.0499029Z" fill="#FFD143"/>
<path opacity="0.995" fill-rule="evenodd" clip-rule="evenodd" d="M23.45 0.0499029C24.2066 0.0198896 24.7899 0.319224 25.2 0.947907C27.2844 5.17405 29.3678 9.39803 31.45 13.6197C28.8871 16.3601 26.3038 19.0873 23.7 21.8016C23.6568 21.9113 23.7068 21.9779 23.85 22.0011C31.5326 20.282 39.1993 18.5526 46.85 16.8127C47.1234 17.4719 47.1068 18.1371 46.8 18.8082C43.3632 22.1876 39.9132 25.5468 36.45 28.8858C32.1657 26.632 27.8657 24.4036 23.55 22.2007C23.5167 22.2007 23.4833 22.2007 23.45 22.2007C23.4167 22.2007 23.3833 22.2007 23.35 22.2007C23.2319 22.0443 23.0653 21.9611 22.85 21.9512C15.2313 20.3001 7.63125 18.5872 0.0499878 16.8127C0.315968 16.1455 0.815968 15.7631 1.54999 15.6652C6.19155 15.006 10.8249 14.3242 15.45 13.6197C18.0774 16.4245 20.7274 19.2183 23.4 22.0011C23.45 14.6841 23.4667 7.36704 23.45 0.0499029Z" fill="#FFB845"/>
<path fill-rule="evenodd" clip-rule="evenodd" d="M31.45 13.6198C36.0751 14.3242 40.7084 15.006 45.35 15.6652C46.084 15.7631 46.584 16.1455 46.85 16.8127C39.1993 18.5526 31.5326 20.282 23.85 22.0011C23.7068 21.9779 23.6568 21.9113 23.7 21.8016C26.3038 19.0873 28.8871 16.3601 31.45 13.6198Z" fill="#FFD143"/>
<path fill-rule="evenodd" clip-rule="evenodd" d="M0.0499899 16.8126C7.63125 18.5872 15.2313 20.3001 22.85 21.9512C23.0653 21.9611 23.2319 22.0443 23.35 22.2006C19.0343 24.4036 14.7343 26.632 10.45 28.8858C6.98684 25.5468 3.53684 22.1876 0.0999899 18.8082C-0.20679 18.1371 -0.22345 17.4719 0.0499899 16.8126Z" fill="#FFD143"/>
<path fill-rule="evenodd" clip-rule="evenodd" d="M23.35 22.2007C23.3833 22.2007 23.4167 22.2007 23.45 22.2007C23.45 27.5887 23.45 32.9767 23.45 38.3648C19.286 40.542 15.1193 42.7205 10.95 44.9002C10.2015 45.1546 9.50148 45.0715 8.84998 44.6508C13.6573 37.1533 18.4907 29.6699 23.35 22.2007Z" fill="#FFD143"/>
<path opacity="0.996" fill-rule="evenodd" clip-rule="evenodd" d="M23.45 22.2007C23.4833 22.2007 23.5167 22.2007 23.55 22.2007C28.3682 29.6885 33.2349 37.1386 38.15 44.551C37.4947 45.0634 36.7614 45.1798 35.95 44.9002C31.7807 42.7205 27.614 40.542 23.45 38.3648C23.45 32.9767 23.45 27.5887 23.45 22.2007Z" fill="#FFB845"/>
<path opacity="0.995" fill-rule="evenodd" clip-rule="evenodd" d="M23.35 22.2007C18.4907 29.6699 13.6573 37.1533 8.84999 44.6508C8.32729 44.2376 8.06059 43.6888 8.04999 43.0045C8.83399 38.2944 9.63399 33.5883 10.45 28.8858C14.7343 26.632 19.0343 24.4036 23.35 22.2007Z" fill="#FFB845"/>
<path fill-rule="evenodd" clip-rule="evenodd" d="M23.55 22.2007C27.8657 24.4036 32.1657 26.632 36.45 28.8858C37.266 33.5883 38.066 38.2944 38.85 43.0045C38.8702 43.6452 38.6369 44.1607 38.15 44.551C33.2349 37.1386 28.3682 29.6885 23.55 22.2007Z" fill="#FFD143"/>
</g>
<defs>
<clipPath id="clip0_414_2">
<rect width="47" height="45" fill="white"/>
</clipPath>
</defs>
</svg>
