<svg xmlns="http://www.w3.org/2000/svg" version="1.1" xmlns:xlink="http://www.w3.org/1999/xlink" xmlns:svgjs="http://svgjs.com/svgjs" width="1440" height="560" preserveAspectRatio="none" viewBox="0 0 1440 560"><g mask="url(&quot;#SvgjsMask1009&quot;)" fill="none"><path d="M1536 560L0 560 L0 311.04Q51.79 290.83, 72 342.61Q124.37 274.98, 192 327.35Q228.36 243.71, 312 280.07Q362.57 258.64, 384 309.21Q438.62 291.82, 456 346.44Q528.58 299.01, 576 371.59Q612.7 288.28, 696 324.98Q750.22 259.2, 816 313.42Q892.4 269.83, 936 346.23Q965.26 303.49, 1008 332.75Q1028.84 281.59, 1080 302.43Q1124.01 274.44, 1152 318.45Q1240.14 286.59, 1272 374.73Q1302.72 333.45, 1344 364.17Q1358.52 306.69, 1416 321.21Q1457.13 242.35, 1536 283.48z" fill="rgba(163, 137, 70, 1)"></path><path d="M1560 560L0 560 L0 395.64Q79.78 355.42, 120 435.2Q143.61 386.81, 192 410.42Q246.1 344.52, 312 398.63Q365.22 379.85, 384 433.07Q414.55 343.62, 504 374.17Q573.87 324.04, 624 393.91Q685.3 383.21, 696 444.51Q715.98 344.49, 816 364.46Q860.55 337.01, 888 381.57Q932.94 306.51, 1008 351.46Q1074.87 298.32, 1128 365.19Q1200.09 317.28, 1248 389.37Q1303.17 372.55, 1320 427.72Q1350.38 338.1, 1440 368.47Q1505.84 314.31, 1560 380.15z" fill="rgba(190, 177, 97, 1)"></path><path d="M1512 560L0 560 L0 487.18Q54.57 421.75, 120 476.31Q170.51 454.82, 192 505.33Q195.05 436.38, 264 439.43Q294.35 397.78, 336 428.13Q427.08 399.21, 456 490.29Q498.25 460.54, 528 502.79Q568.3 423.09, 648 463.39Q671.25 414.63, 720 437.88Q774 419.88, 792 473.88Q862.86 424.74, 912 495.6Q980.08 443.68, 1032 511.76Q1044.37 452.13, 1104 464.49Q1134.97 423.47, 1176 454.44Q1198.09 404.52, 1248 426.61Q1289.46 396.07, 1320 437.53Q1376.57 422.1, 1392 478.66Q1460.89 427.55, 1512 496.44z" fill="rgba(255, 246, 195, 1)"></path><path d="M1560 560L0 560 L0 518.38Q62.11 508.49, 72 570.59Q98.47 525.06, 144 551.53Q182.84 470.37, 264 509.21Q294.8 468.01, 336 498.81Q386.36 477.17, 408 527.54Q488.27 487.81, 528 568.08Q528.66 496.74, 600 497.4Q649.81 475.21, 672 525.02Q760.04 493.06, 792 581.09Q812.08 529.17, 864 549.26Q899.59 464.85, 984 500.44Q1030.15 474.6, 1056 520.75Q1097.76 490.51, 1128 532.28Q1150 482.28, 1200 504.28Q1267.69 451.97, 1320 519.66Q1388.97 468.63, 1440 537.61Q1479.23 456.84, 1560 496.07z" fill="white"></path></g><defs><mask id="SvgjsMask1009"><rect width="1440" height="560" fill="#ffffff"></rect></mask></defs></svg>