<svg width="475" height="522" viewBox="0 0 475 522" fill="none" xmlns="http://www.w3.org/2000/svg">
<path fill-rule="evenodd" clip-rule="evenodd" d="M327.5 10.5C321.566 9.88875 315.9 10.722 310.5 13C311.731 14.1827 311.731 15.3493 310.5 16.5C309.749 15.624 309.249 14.624 309 13.5C307.581 14.4601 306.081 15.2935 304.5 16C302.671 17.1133 301.837 18.6133 302 20.5C303.11 18.9632 304.61 18.2965 306.5 18.5C306.67 19.8221 306.337 20.9887 305.5 22C303.555 21.8719 301.722 22.0385 300 22.5C298.643 25.8981 296.81 28.8981 294.5 31.5C295.288 21.8661 299.955 14.6995 308.5 10C311.375 8.93475 314.375 8.43475 317.5 8.50005C321.141 8.31485 324.474 8.98145 327.5 10.5Z" fill="#F39EA9"/>
<path fill-rule="evenodd" clip-rule="evenodd" d="M148.5 4.49996C148.461 6.35876 149.294 7.69206 151 8.49996C151.667 12.5 151.667 16.5 151 20.5C148.341 22.0602 147.174 24.3935 147.5 27.5C144.139 25.5163 142.472 26.5163 142.5 30.5C133.619 31.6469 124.953 31.6469 116.5 30.5C110.796 26.2707 108.962 20.6041 111 13.5C114.77 6.52446 120.603 2.35776 128.5 0.99996C135.603 -0.0784404 142.27 1.08816 148.5 4.49996Z" fill="#67BFBA"/>
<path fill-rule="evenodd" clip-rule="evenodd" d="M117.5 10.5C121.029 11.6092 121.362 13.4425 118.5 16C117.552 16.4828 116.552 16.6495 115.5 16.5C115.253 14.1417 115.919 12.1417 117.5 10.5Z" fill="#E0F0EB"/>
<path fill-rule="evenodd" clip-rule="evenodd" d="M127.5 13.5C128.5 13.5 129.5 13.5 130.5 13.5C131.043 13.56 131.376 13.8933 131.5 14.5C129.099 17.4127 127.766 17.0794 127.5 13.5Z" fill="#D27CA0"/>
<path fill-rule="evenodd" clip-rule="evenodd" d="M130.5 13.5C129.5 13.5 128.5 13.5 127.5 13.5C128.038 11.8828 128.371 10.2162 128.5 8.50006C129.978 8.23806 131.311 8.57136 132.5 9.50006C131.147 10.5238 130.48 11.857 130.5 13.5Z" fill="#A8BFCC"/>
<path fill-rule="evenodd" clip-rule="evenodd" d="M132.5 15.5C134.199 15.3398 135.866 15.5065 137.5 16C138.929 20.0671 137.596 21.2338 133.5 19.5C132.754 18.2638 132.421 16.9305 132.5 15.5Z" fill="#4C5176"/>
<path fill-rule="evenodd" clip-rule="evenodd" d="M148.5 4.49996C157.935 9.37466 161.435 17.0414 159 27.5C156.669 32.4243 152.836 35.5909 147.5 37C138.658 38.1256 129.992 37.4589 121.5 35C119.382 33.9509 117.716 32.4509 116.5 30.5C124.953 31.6469 133.619 31.6469 142.5 30.5C142.472 26.5163 144.139 25.5163 147.5 27.5C147.174 24.3935 148.341 22.0602 151 20.5C151.667 16.5 151.667 12.5 151 8.49996C149.294 7.69206 148.461 6.35876 148.5 4.49996Z" fill="#57B2AE"/>
<path fill-rule="evenodd" clip-rule="evenodd" d="M193.5 32.5C192.761 32.369 192.094 32.5357 191.5 33C192.19 35.696 193.69 37.8626 196 39.5C196.424 41.9759 197.257 44.3093 198.5 46.5C198.652 51.0495 196.819 54.383 193 56.5C192.727 58.101 192.227 59.601 191.5 61C188.964 61.339 186.464 61.839 184 62.5C182.245 61.387 180.745 61.72 179.5 63.5C174.133 60.814 170.633 56.481 169 50.5C164.865 38.0926 169.032 30.4259 181.5 27.5C186.242 27.6295 190.242 29.2961 193.5 32.5Z" fill="#FAC1C4"/>
<path fill-rule="evenodd" clip-rule="evenodd" d="M327.5 10.5C335.138 13.0901 339.471 18.4234 340.5 26.5C339.732 25.7375 339.232 24.7375 339 23.5C338.667 23.8333 338.333 24.1667 338 24.5C337.517 23.552 337.351 22.552 337.5 21.5C336.5 21.5 335.5 21.5 334.5 21.5C336.525 25.8798 335.692 29.5465 332 32.5C331.506 34.1341 331.34 35.8008 331.5 37.5C330.167 37.5 328.833 37.5 327.5 37.5C327.5 38.8333 327.5 40.1667 327.5 41.5C326.167 41.5 324.833 41.5 323.5 41.5C323.67 42.8221 323.337 43.9887 322.5 45C319.458 45.1785 316.625 46.0118 314 47.5C312.715 47.0496 311.548 46.3829 310.5 45.5C308.321 47.6859 305.821 48.0192 303 46.5C301.624 46.6842 300.791 47.3509 300.5 48.5C296.141 43.7602 294.141 38.0935 294.5 31.5C296.81 28.8981 298.643 25.8981 300 22.5C301.722 22.0385 303.555 21.8719 305.5 22C306.337 20.9887 306.67 19.8221 306.5 18.5C304.61 18.2965 303.11 18.9632 302 20.5C301.837 18.6133 302.671 17.1133 304.5 16C306.081 15.2935 307.581 14.4601 309 13.5C309.249 14.624 309.749 15.624 310.5 16.5C311.731 15.3493 311.731 14.1827 310.5 13C315.9 10.722 321.566 9.88875 327.5 10.5Z" fill="#F891A0"/>
<path fill-rule="evenodd" clip-rule="evenodd" d="M313.5 28.5C318.262 29.0925 319.596 31.5925 317.5 36C311.202 36.4954 309.868 33.9954 313.5 28.5Z" fill="#52355A"/>
<path fill-rule="evenodd" clip-rule="evenodd" d="M299.5 28.5C300.5 28.5 301.5 28.5 302.5 28.5C303.244 31.9496 301.91 33.6162 298.5 33.5C298.366 31.7085 298.699 30.0418 299.5 28.5Z" fill="#F4DAD6"/>
<path fill-rule="evenodd" clip-rule="evenodd" d="M323.5 21.5C329.158 20.6794 330.825 22.846 328.5 28C323.262 28.5941 321.595 26.4274 323.5 21.5Z" fill="#623D66"/>
<path fill-rule="evenodd" clip-rule="evenodd" d="M180.5 38.5C184.161 38.3501 185.161 39.8501 183.5 43C179.707 43.4866 178.707 41.9866 180.5 38.5Z" fill="#F2968E"/>
<path fill-rule="evenodd" clip-rule="evenodd" d="M340.5 26.5C340.937 43.9532 332.437 53.2866 315 54.5C309.18 54.731 304.347 52.7308 300.5 48.5C300.791 47.3509 301.624 46.6842 303 46.5C305.821 48.0192 308.321 47.6859 310.5 45.5C311.548 46.3829 312.715 47.0496 314 47.5C316.625 46.0118 319.458 45.1785 322.5 45C323.337 43.9887 323.67 42.8221 323.5 41.5C324.833 41.5 326.167 41.5 327.5 41.5C327.5 40.1667 327.5 38.8333 327.5 37.5C328.833 37.5 330.167 37.5 331.5 37.5C331.34 35.8008 331.506 34.1341 332 32.5C335.692 29.5465 336.525 25.8798 334.5 21.5C335.5 21.5 336.5 21.5 337.5 21.5C337.351 22.552 337.517 23.552 338 24.5C338.333 24.1667 338.667 23.8333 339 23.5C339.232 24.7375 339.732 25.7375 340.5 26.5Z" fill="#FA7894"/>
<path fill-rule="evenodd" clip-rule="evenodd" d="M382.5 53.5C382.102 57.231 382.102 61.064 382.5 65C381.523 66.497 380.523 67.997 379.5 69.5C381.145 72.882 380.145 75.215 376.5 76.5C375.311 77.429 373.978 77.762 372.5 77.5C372.5 78.5 372.5 79.5 372.5 80.5C370.139 80.326 367.806 79.993 365.5 79.5C365.5 80.833 365.5 82.167 365.5 83.5C361.62 82.677 357.62 82.677 353.5 83.5C346.73 88.032 342.73 94.365 341.5 102.5C340.833 100.5 340.167 98.5 339.5 96.5C332.096 102.316 328.763 109.982 329.5 119.5C326.463 107.725 330.463 98.891 341.5 93C344.5 89.333 347.5 85.667 350.5 82C343.795 78.099 339.962 72.266 339 64.5C337.513 55.638 340.347 48.4713 347.5 43C358.336 39.6741 368.336 41.1741 377.5 47.5C379.531 49.3101 381.198 51.3101 382.5 53.5Z" fill="#96CCAC"/>
<path fill-rule="evenodd" clip-rule="evenodd" d="M144.5 39.4999C144.897 38.4749 145.563 38.3082 146.5 38.9999C154.11 45.0982 156.61 52.9316 154 62.4999C149.232 70.6339 148.566 70.2999 152 61.4999C154.59 52.2743 152.09 44.941 144.5 39.4999Z" fill="#D99BAC"/>
<path fill-rule="evenodd" clip-rule="evenodd" d="M347.5 48.5C348.5 48.5 349.5 48.5 350.5 48.5C350.5 49.5 350.5 50.5 350.5 51.5C349.5 51.5 348.5 51.5 347.5 51.5C347.002 54.487 346.502 57.487 346 60.5C343.2 62.118 341.7 61.285 341.5 58C341.796 56.112 342.296 54.278 343 52.5C344.859 51.4209 346.359 50.0876 347.5 48.5Z" fill="#E8EDDB"/>
<path fill-rule="evenodd" clip-rule="evenodd" d="M137.5 62.5C138.514 65.456 140.014 68.123 142 70.5C142.754 75.963 143.92 81.296 145.5 86.5C141.877 86.649 141.543 87.816 144.5 90C142.827 96.413 140.661 102.579 138 108.5C132.354 114.163 126.187 118.996 119.5 123C115.315 122.972 111.648 124.305 108.5 127C97.855 129.543 87.522 128.709 77.5 124.5C70.286 118.059 66.619 109.893 66.5 100C67.471 90.223 71.305 81.723 78 74.5C90.724 61.219 106.224 55.385 124.5 57C129.22 58.176 133.554 60.01 137.5 62.5Z" fill="#F9BE76"/>
<path fill-rule="evenodd" clip-rule="evenodd" d="M371.5 55.5C372.833 55.5 374.167 55.5 375.5 55.5C375.5 57.5 375.5 59.5 375.5 61.5C369.541 62.222 368.207 60.222 371.5 55.5Z" fill="#4D5167"/>
<path fill-rule="evenodd" clip-rule="evenodd" d="M193.5 32.5C202.23 38.64 205.397 46.9733 203 57.5C198.27 65.193 191.437 68.026 182.5 66C181.058 65.623 180.058 64.79 179.5 63.5C180.745 61.72 182.245 61.387 184 62.5C186.464 61.839 188.964 61.339 191.5 61C192.227 59.601 192.727 58.101 193 56.5C196.819 54.383 198.652 51.0495 198.5 46.5C197.257 44.3093 196.424 41.9759 196 39.5C193.69 37.8626 192.19 35.696 191.5 33C192.094 32.5357 192.761 32.369 193.5 32.5Z" fill="#F6AFB5"/>
<path fill-rule="evenodd" clip-rule="evenodd" d="M99.5 64.5C101.833 64.5 104.167 64.5 106.5 64.5C106.67 65.822 106.337 66.989 105.5 68C96.277 71.066 88.944 76.566 83.5 84.5C82.311 85.429 80.978 85.762 79.5 85.5C79.963 79.748 82.629 75.248 87.5 72C91.407 69.241 95.407 66.741 99.5 64.5Z" fill="#F9F3DE"/>
<path fill-rule="evenodd" clip-rule="evenodd" d="M289.5 57.5C288.778 57.918 288.278 58.584 288 59.5C287.107 58.289 286.274 58.289 285.5 59.5C288.778 61.908 289.111 64.575 286.5 67.5C287.274 68.711 288.107 68.711 289 67.5C289.854 70.407 289.021 72.74 286.5 74.5C286.709 75.086 287.043 75.586 287.5 76C286.167 77.333 284.833 78.667 283.5 80C280.008 79.93 277.008 80.763 274.5 82.5C273.778 81.449 272.778 80.782 271.5 80.5C263.466 74.133 261.799 66.466 266.5 57.5C269.168 54.082 272.668 52.4158 277 52.5C280.642 52.7134 284.142 53.5468 287.5 55C288.381 55.708 289.047 56.542 289.5 57.5Z" fill="#F992A1"/>
<path fill-rule="evenodd" clip-rule="evenodd" d="M289.5 57.5C297.449 65.957 297.449 74.457 289.5 83C285.113 85.999 280.78 86.165 276.5 83.5C276.158 82.662 275.492 82.328 274.5 82.5C277.008 80.763 280.008 79.93 283.5 80C284.833 78.667 286.167 77.333 287.5 76C287.043 75.586 286.709 75.086 286.5 74.5C289.021 72.74 289.854 70.407 289 67.5C288.107 68.711 287.274 68.711 286.5 67.5C289.111 64.575 288.778 61.908 285.5 59.5C286.274 58.289 287.107 58.289 288 59.5C288.278 58.584 288.778 57.918 289.5 57.5Z" fill="#F67992"/>
<path fill-rule="evenodd" clip-rule="evenodd" d="M382.5 53.5C388.037 59.004 389.87 65.671 388 73.5C385.78 82.057 380.28 86.557 371.5 87C364.948 88.252 358.948 87.085 353.5 83.5C357.62 82.677 361.62 82.677 365.5 83.5C365.5 82.167 365.5 80.833 365.5 79.5C367.806 79.993 370.139 80.326 372.5 80.5C372.5 79.5 372.5 78.5 372.5 77.5C373.978 77.762 375.311 77.429 376.5 76.5C380.145 75.215 381.145 72.882 379.5 69.5C380.523 67.997 381.523 66.497 382.5 65C382.102 61.064 382.102 57.231 382.5 53.5Z" fill="#6FBBAA"/>
<path fill-rule="evenodd" clip-rule="evenodd" d="M250.5 75.5C259.331 84.942 259.665 94.775 251.5 105C248.408 106.546 245.408 108.046 242.5 109.5C242.167 109.5 241.833 109.5 241.5 109.5C237.785 109.577 234.119 109.244 230.5 108.5C230.423 107.25 229.756 106.417 228.5 106C234.044 105.485 239.377 104.152 244.5 102C245.901 100.323 247.235 98.656 248.5 97C245.543 94.816 245.877 93.649 249.5 93.5C249.344 90.934 249.678 88.434 250.5 86C249.387 84.606 248.053 83.439 246.5 82.5C247.325 81.614 248.325 81.281 249.5 81.5C249.205 79.265 249.539 77.265 250.5 75.5Z" fill="#F9A768"/>
<path fill-rule="evenodd" clip-rule="evenodd" d="M102.5 82.4999C110.629 81.4729 114.963 84.9729 115.5 92.9999C114.171 105.316 107.504 110.316 95.5 108C93.951 106.786 92.785 105.286 92 103.5C89.618 93.4219 93.118 86.4219 102.5 82.4999Z" fill="#FBF5DE"/>
<path fill-rule="evenodd" clip-rule="evenodd" d="M179.5 96.5C175.705 98.143 171.705 98.809 167.5 98.5C163.797 92.742 165.297 89.075 172 87.5C177.267 88.262 179.767 91.262 179.5 96.5Z" fill="#8FCAB0"/>
<path fill-rule="evenodd" clip-rule="evenodd" d="M271.5 80.5C272.778 80.782 273.778 81.449 274.5 82.5C275.492 82.328 276.158 82.662 276.5 83.5C275.325 83.281 274.325 83.614 273.5 84.5C270.411 92.419 265.911 99.419 260 105.5C258.23 110.795 258.063 116.129 259.5 121.5C258.377 122.757 257.711 122.424 257.5 120.5C256.149 115.478 256.315 110.478 258 105.5C263.822 98.5 268.655 90.834 272.5 82.5C272.137 81.817 271.804 81.15 271.5 80.5Z" fill="#E1A2A8"/>
<path fill-rule="evenodd" clip-rule="evenodd" d="M137.5 62.5C153.972 72.72 159.805 87.386 155 106.5C149.382 120.958 139.215 130.291 124.5 134.5C122.712 135.36 121.045 136.36 119.5 137.5C112.159 137.666 104.826 137.5 97.5 137C89.319 135.085 82.652 130.919 77.5 124.5C87.522 128.709 97.855 129.543 108.5 127C111.648 124.305 115.315 122.972 119.5 123C126.187 118.996 132.354 114.163 138 108.5C140.661 102.579 142.827 96.413 144.5 90C141.543 87.816 141.877 86.649 145.5 86.5C143.92 81.296 142.754 75.963 142 70.5C140.014 68.123 138.514 65.456 137.5 62.5Z" fill="#FBA867"/>
<path fill-rule="evenodd" clip-rule="evenodd" d="M102.5 89.5C108.156 89.867 109.989 92.867 108 98.5C103.455 102.985 99.955 102.485 97.5 97C97.625 95.373 98.125 93.873 99 92.5C100.518 91.837 101.685 90.837 102.5 89.5Z" fill="#F6BE7F"/>
<path fill-rule="evenodd" clip-rule="evenodd" d="M317.5 103.5C312.929 103.946 308.596 103.28 304.5 101.5C306.719 92.6 311.219 91.267 318 97.5C318.789 99.712 318.622 101.712 317.5 103.5Z" fill="#8BCBB0"/>
<path fill-rule="evenodd" clip-rule="evenodd" d="M417.5 102.5C416.957 102.56 416.624 102.893 416.5 103.5C423.526 117.594 421.192 130.094 409.5 141C393.626 152.752 376.626 155.586 358.5 149.5C357.272 148.694 356.272 147.694 355.5 146.5C355.5 145.833 355.167 145.5 354.5 145.5C349.03 132.689 350.863 121.023 360 110.5C374.464 97.01 391.297 92.51 410.5 97C413.266 98.371 415.599 100.204 417.5 102.5Z" fill="#C89FBA"/>
<path fill-rule="evenodd" clip-rule="evenodd" d="M72.5 90.5C73.5 90.5 74.5 90.5 75.5 90.5C75.676 95.88 75.342 101.213 74.5 106.5C73.178 106.67 72.011 106.337 71 105.5C70.092 100.317 70.592 95.317 72.5 90.5Z" fill="#FAF6E5"/>
<path fill-rule="evenodd" clip-rule="evenodd" d="M250.5 75.5C249.539 77.265 249.205 79.265 249.5 81.5C248.325 81.281 247.325 81.614 246.5 82.5C248.053 83.439 249.387 84.606 250.5 86C249.678 88.434 249.344 90.934 249.5 93.5C245.877 93.649 245.543 94.816 248.5 97C247.235 98.656 245.901 100.323 244.5 102C239.377 104.152 234.044 105.485 228.5 106C229.756 106.417 230.423 107.25 230.5 108.5C220.181 105.67 214.848 98.836 214.5 88C217.29 71.934 226.624 65.934 242.5 70C245.599 71.276 248.266 73.11 250.5 75.5Z" fill="#F9BD78"/>
<path fill-rule="evenodd" clip-rule="evenodd" d="M228.5 77.5C235.494 77.415 237.161 80.248 233.5 86C231.299 86.825 229.466 86.325 228 84.5C227.444 82.115 227.61 79.782 228.5 77.5Z" fill="#573D5A"/>
<path fill-rule="evenodd" clip-rule="evenodd" d="M179.5 96.5C181.346 98.03 182.346 100.03 182.5 102.5C178.246 103.646 173.913 104.313 169.5 104.5C167.926 102.898 167.259 100.898 167.5 98.5C171.705 98.809 175.705 98.143 179.5 96.5Z" fill="#F1E3C1"/>
<path fill-rule="evenodd" clip-rule="evenodd" d="M304.5 101.5C308.596 103.28 312.929 103.946 317.5 103.5C317.675 105.621 317.341 107.621 316.5 109.5C311.453 109.663 306.453 109.329 301.5 108.5C302.305 106.085 303.305 103.751 304.5 101.5Z" fill="#E8D8C0"/>
<path fill-rule="evenodd" clip-rule="evenodd" d="M384.5 99.5C386.5 99.5 388.5 99.5 390.5 99.5C390.67 100.822 390.337 101.989 389.5 103C380.422 105.455 372.256 109.622 365 115.5C363.411 113.089 363.911 110.922 366.5 109C372.15 105.01 378.15 101.843 384.5 99.5Z" fill="#EEE9EF"/>
<path fill-rule="evenodd" clip-rule="evenodd" d="M182.5 102.5C183.458 104.302 184.125 106.302 184.5 108.5C179.859 109.127 175.193 109.46 170.5 109.5C169.699 107.958 169.366 106.292 169.5 104.5C173.913 104.313 178.246 103.646 182.5 102.5Z" fill="#F692A6"/>
<path fill-rule="evenodd" clip-rule="evenodd" d="M184.5 108.5C185.686 109.705 185.686 111.039 184.5 112.5C180.557 113.486 176.557 114.152 172.5 114.5C171.069 113.22 170.402 111.553 170.5 109.5C175.193 109.46 179.859 109.127 184.5 108.5Z" fill="#F3E6C2"/>
<path fill-rule="evenodd" clip-rule="evenodd" d="M301.5 108.5C306.453 109.329 311.453 109.663 316.5 109.5C315.962 111.117 315.629 112.784 315.5 114.5C310.133 115.666 304.8 115.333 299.5 113.5C299.893 111.716 300.559 110.05 301.5 108.5Z" fill="#F791A0"/>
<path fill-rule="evenodd" clip-rule="evenodd" d="M184.5 112.5C186.847 113.607 187.18 115.274 185.5 117.5C181.519 118.021 177.519 118.354 173.5 118.5C172.566 117.432 172.232 116.099 172.5 114.5C176.557 114.152 180.557 113.486 184.5 112.5Z" fill="#88CEB8"/>
<path fill-rule="evenodd" clip-rule="evenodd" d="M299.5 113.5C304.8 115.333 310.133 115.666 315.5 114.5C315.204 116.403 314.537 118.07 313.5 119.5C308.637 118.734 303.637 118.068 298.5 117.5C298.232 115.901 298.566 114.568 299.5 113.5Z" fill="#F2E5D1"/>
<path fill-rule="evenodd" clip-rule="evenodd" d="M241.5 109.5C241.833 109.5 242.167 109.5 242.5 109.5C243.084 112.473 243.751 115.473 244.5 118.5C248.744 119.707 253.077 120.374 257.5 120.5C257.711 122.424 258.377 122.757 259.5 121.5C270.433 123.145 281.1 125.812 291.5 129.5C295.961 132.776 300.961 135.109 306.5 136.5C315.321 140.408 323.655 145.075 331.5 150.5C329.013 151.79 329.347 152.79 332.5 153.5C333.309 155.071 333.643 156.738 333.5 158.5C334.833 158.5 336.167 158.5 337.5 158.5C338.143 161.325 339.477 163.825 341.5 166C341.355 166.772 341.022 167.439 340.5 168C343.557 167.893 345.891 169.06 347.5 171.5C348.085 175.092 349.419 178.259 351.5 181C351.265 181.873 350.931 182.707 350.5 183.5C352.329 187.479 354.662 190.979 357.5 194C357.095 194.945 356.428 195.612 355.5 196C357.2 198.271 358.533 200.771 359.5 203.5C359.27 205.626 358.27 207.293 356.5 208.5C359.541 212.216 360.208 216.383 358.5 221C359.416 221.374 360.25 221.874 361 222.5C361.212 224.78 362.045 226.78 363.5 228.5C362.91 229.799 361.91 230.632 360.5 231C364.311 233.264 364.311 235.597 360.5 238C363.076 240.54 364.41 243.707 364.5 247.5C364.081 248.672 363.415 249.672 362.5 250.5C364.053 251.439 365.387 252.606 366.5 254C366.241 255.261 365.574 256.261 364.5 257C366.823 259.506 367.156 262.34 365.5 265.5C365.957 266.298 366.624 266.631 367.5 266.5C362.805 271.358 357.639 275.692 352 279.5C348.354 275.552 345.187 271.219 342.5 266.5C341.635 265.417 340.635 265.251 339.5 266C325.352 277.98 311.352 290.147 297.5 302.5C288.48 290.323 279.313 278.323 270 266.5C255.333 279.167 240.667 291.833 226 304.5C215.636 291.96 205.803 278.96 196.5 265.5C186.175 273.993 176.008 282.659 166 291.5C165.228 291.355 164.561 291.022 164 290.5C154.362 276.029 144.529 261.696 134.5 247.5C129.167 251.669 124 256.002 119 260.5C117.233 259.66 115.899 258.327 115 256.5C112.88 251.758 110.38 247.258 107.5 243C106.5 242.333 105.5 242.333 104.5 243C103.627 244.045 102.627 244.878 101.5 245.5C104.953 217.654 113.62 191.654 127.5 167.5C128.5 167.167 129.167 166.5 129.5 165.5C130.674 164.486 131.34 163.153 131.5 161.5C132.906 161.027 133.573 160.027 133.5 158.5C144.674 145.708 158.34 136.042 174.5 129.5C175.298 129.043 175.631 128.376 175.5 127.5C179.788 127.722 183.955 126.722 188 124.5C188.483 123.552 188.649 122.552 188.5 121.5C189.261 122.391 190.261 123.058 191.5 123.5C207.745 118.13 224.411 116.13 241.5 117.5C241.5 114.833 241.5 112.167 241.5 109.5Z" fill="#FBC2C5"/>
<path fill-rule="evenodd" clip-rule="evenodd" d="M185.5 117.5C186.5 117.5 187.5 117.5 188.5 117.5C188.5 118.833 188.5 120.167 188.5 121.5C184.246 122.646 179.913 123.313 175.5 123.5C173.787 122.365 173.12 120.698 173.5 118.5C177.519 118.354 181.519 118.021 185.5 117.5Z" fill="#EDDFBC"/>
<path fill-rule="evenodd" clip-rule="evenodd" d="M298.5 117.5C303.637 118.068 308.637 118.734 313.5 119.5C313.34 121.153 312.674 122.486 311.5 123.5C306.089 123.875 301.089 122.875 296.5 120.5C296.427 118.973 297.094 117.973 298.5 117.5Z" fill="#F5A9A4"/>
<path fill-rule="evenodd" clip-rule="evenodd" d="M381.5 115.5C393.488 114.322 398.321 119.656 396 131.5C389.333 138.167 382.667 138.167 376 131.5C373.024 124.462 374.857 119.129 381.5 115.5Z" fill="#EAE7F0"/>
<path fill-rule="evenodd" clip-rule="evenodd" d="M210.5 123.5C216.842 123.334 223.175 123.5 229.5 124C230.833 125 230.833 126 229.5 127C219.142 128.646 208.809 130.146 198.5 131.5C198.33 130.178 198.663 129.011 199.5 128C203.157 126.178 206.824 124.678 210.5 123.5Z" fill="#FAF7F7"/>
<path fill-rule="evenodd" clip-rule="evenodd" d="M296.5 120.5C301.089 122.875 306.089 123.875 311.5 123.5C311.768 125.099 311.434 126.432 310.5 127.5C305.302 126.741 299.969 126.075 294.5 125.5C294.402 123.447 295.069 121.78 296.5 120.5Z" fill="#F5E2C6"/>
<path fill-rule="evenodd" clip-rule="evenodd" d="M188.5 121.5C188.649 122.552 188.483 123.552 188 124.5C183.955 126.722 179.788 127.722 175.5 127.5C175.5 126.167 175.5 124.833 175.5 123.5C179.913 123.313 184.246 122.646 188.5 121.5Z" fill="#F6919F"/>
<path fill-rule="evenodd" clip-rule="evenodd" d="M384.5 120.5C391.297 121.107 392.964 124.274 389.5 130C381.03 130.531 379.364 127.364 384.5 120.5Z" fill="#CDA0BC"/>
<path fill-rule="evenodd" clip-rule="evenodd" d="M294.5 125.5C299.969 126.075 305.302 126.741 310.5 127.5C307.813 127.336 305.146 127.503 302.5 128C301.619 128.708 300.953 129.542 300.5 130.5C297.982 129.736 295.649 128.736 293.5 127.5C293.328 126.508 293.662 125.842 294.5 125.5Z" fill="#FAA79F"/>
<path fill-rule="evenodd" clip-rule="evenodd" d="M293.5 127.5C295.649 128.736 297.982 129.736 300.5 130.5C303.067 131.475 305.733 132.142 308.5 132.5C308.267 134.062 307.6 135.395 306.5 136.5C300.961 135.109 295.961 132.776 291.5 129.5C291.833 128.5 292.5 127.833 293.5 127.5Z" fill="#F1E0BF"/>
<path fill-rule="evenodd" clip-rule="evenodd" d="M310.5 127.5C310.204 129.403 309.537 131.07 308.5 132.5C305.733 132.142 303.067 131.475 300.5 130.5C300.953 129.542 301.619 128.708 302.5 128C305.146 127.503 307.813 127.336 310.5 127.5Z" fill="#F7888F"/>
<path fill-rule="evenodd" clip-rule="evenodd" d="M89.5 149.5C100.547 172.682 96.547 192.849 77.5 210C61.012 220.388 43.678 222.221 25.5 215.5C25.9899 213.052 25.1566 211.385 23 210.5C21.1852 212.099 20.0185 214.099 19.5 216.5C3.93946 204.324 -1.89384 188.324 1.99996 168.5C7.23566 153.593 17.069 142.76 31.5 136C54.058 127.252 73.391 131.752 89.5 149.5Z" fill="#95CDAA"/>
<path fill-rule="evenodd" clip-rule="evenodd" d="M42.5 135.5C47.667 134.492 49.334 136.325 47.5 141C32.85 144.65 21.1836 152.65 12.5 165C11.2161 165.684 10.0495 165.517 8.99998 164.5C8.36528 162.365 8.69858 160.365 9.99998 158.5C18.5242 147.495 29.358 139.828 42.5 135.5Z" fill="#F3F5DA"/>
<path fill-rule="evenodd" clip-rule="evenodd" d="M417.5 102.5C426.958 110.717 430.124 121.051 427 133.5C418.959 151.951 404.792 161.618 384.5 162.5C376.277 162.552 368.943 160.052 362.5 155C360.536 153.549 359.203 151.716 358.5 149.5C376.626 155.586 393.626 152.752 409.5 141C421.192 130.094 423.526 117.594 416.5 103.5C416.624 102.893 416.957 102.56 417.5 102.5Z" fill="#B688AA"/>
<path fill-rule="evenodd" clip-rule="evenodd" d="M124.5 134.5C125.827 143.149 128.827 151.149 133.5 158.5C133.573 160.027 132.906 161.027 131.5 161.5C129.635 156.766 127.468 152.099 125 147.5C123.648 144.28 122.814 140.947 122.5 137.5C121.5 137.5 120.5 137.5 119.5 137.5C121.045 136.36 122.712 135.36 124.5 134.5Z" fill="#DB9AA8"/>
<path fill-rule="evenodd" clip-rule="evenodd" d="M334.5 152.5C333.833 152.5 333.5 152.167 333.5 151.5C337.04 143.957 342.374 137.957 349.5 133.5C350.833 134.5 350.833 135.5 349.5 136.5C343.387 139.947 339.054 144.947 336.5 151.5C336.043 152.298 335.376 152.631 334.5 152.5Z" fill="#86C9AF"/>
<path fill-rule="evenodd" clip-rule="evenodd" d="M159.5 142.5C161.199 142.34 162.866 142.506 164.5 143C165.731 144.183 165.731 145.349 164.5 146.5C159.073 149.759 154.073 153.592 149.5 158C144.953 160.124 143.453 158.624 145 153.5C149.45 149.202 154.283 145.535 159.5 142.5Z" fill="#F9F6F6"/>
<path fill-rule="evenodd" clip-rule="evenodd" d="M354.5 145.5C355.167 145.5 355.5 145.833 355.5 146.5C349.988 148.929 344.655 151.929 339.5 155.5C339.167 155.5 338.833 155.5 338.5 155.5C342.225 149.635 347.558 146.302 354.5 145.5Z" fill="#7FC8AA"/>
<path fill-rule="evenodd" clip-rule="evenodd" d="M26.5 154.5C33.676 153.985 35.342 156.818 31.5 163C24.4159 163.475 22.7492 160.642 26.5 154.5Z" fill="#EE86A3"/>
<path fill-rule="evenodd" clip-rule="evenodd" d="M71.5 161.5C77 160.831 79.167 163.165 78 168.5C74.996 172 71.663 172.333 68 169.5C67.333 168.167 67.333 166.833 68 165.5C69.376 164.295 70.542 162.962 71.5 161.5Z" fill="#F0849E"/>
<path fill-rule="evenodd" clip-rule="evenodd" d="M129.5 165.5C129.167 166.5 128.5 167.167 127.5 167.5C117.558 161.704 110.224 164.037 105.5 174.5C104.337 172.45 104.504 170.45 106 168.5C113.029 160.442 120.862 159.442 129.5 165.5Z" fill="#8CC8B4"/>
<path fill-rule="evenodd" clip-rule="evenodd" d="M379.5 200.5C379.336 197.813 379.503 195.146 380 192.5C380.816 191.177 381.983 190.511 383.5 190.5C384.117 190.611 384.617 190.944 385 191.5C385.208 195.918 385.874 200.251 387 204.5C389.909 207.394 393.409 208.227 397.5 207C399.81 205.363 401.31 203.196 402 200.5C399.725 177.777 409.892 167.277 432.5 169C449.933 175.471 453.933 186.637 444.5 202.5C434.386 206.537 429.886 203.203 431 192.5C434.215 188.356 437.049 188.523 439.5 193C439.387 194.28 438.72 195.113 437.5 195.5C436.476 194.147 435.143 193.48 433.5 193.5C433.178 196.532 434.511 198.199 437.5 198.5C441.573 198.054 443.573 195.72 443.5 191.5C442.63 184.126 438.63 179.292 431.5 177C421.887 174.894 414.721 178.061 410 186.5C409.79 192.231 409.124 197.897 408 203.5C401.693 215.921 393.359 217.588 383 208.5C381.546 205.929 380.38 203.262 379.5 200.5Z" fill="#FAF1D8"/>
<path fill-rule="evenodd" clip-rule="evenodd" d="M456.5 175.5C455.903 175.735 455.57 176.235 455.5 177C464.237 196.446 460.903 213.28 445.5 227.5C429.956 237.458 413.289 239.624 395.5 234C390.98 231.712 386.813 228.878 383 225.5C382.601 225.728 382.435 226.062 382.5 226.5C378.254 221.668 375.921 216.001 375.5 209.5C375.337 207.143 375.503 204.81 376 202.5C376.333 202.833 376.667 203.167 377 203.5C377.236 201.881 378.069 200.881 379.5 200.5C380.38 203.262 381.546 205.929 383 208.5C393.359 217.588 401.693 215.921 408 203.5C409.124 197.897 409.79 192.231 410 186.5C414.721 178.061 421.887 174.894 431.5 177C438.63 179.292 442.63 184.126 443.5 191.5C443.573 195.72 441.573 198.054 437.5 198.5C434.511 198.199 433.178 196.532 433.5 193.5C435.143 193.48 436.476 194.147 437.5 195.5C438.72 195.113 439.387 194.28 439.5 193C437.049 188.523 434.215 188.356 431 192.5C429.886 203.203 434.386 206.537 444.5 202.5C453.933 186.637 449.933 175.471 432.5 169C409.892 167.277 399.725 177.777 402 200.5C401.31 203.196 399.81 205.363 397.5 207C393.409 208.227 389.909 207.394 387 204.5C385.874 200.251 385.208 195.918 385 191.5C384.617 190.944 384.117 190.611 383.5 190.5C383.082 189.778 382.416 189.278 381.5 189C383.058 188.79 384.391 188.29 385.5 187.5C387.885 185.116 389.885 182.45 391.5 179.5C392.249 178.469 392.915 177.302 393.5 176C392.167 175.667 390.833 175.333 389.5 175C391.727 174.296 392.06 173.129 390.5 171.5C409.304 156.991 428.971 155.825 449.5 168C452.039 170.37 454.372 172.87 456.5 175.5Z" fill="#FB97A6"/>
<path fill-rule="evenodd" clip-rule="evenodd" d="M23.5 176.5C25.4672 176.261 27.301 176.594 29 177.5C28.841 181.17 28.341 184.837 27.5 188.5C22.5698 188.251 18.9031 185.917 16.5 181.5C18.6866 179.578 21.0199 177.912 23.5 176.5Z" fill="#F188A1"/>
<path fill-rule="evenodd" clip-rule="evenodd" d="M69.5 177.5C72.97 176.875 75.804 177.875 78 180.5C78.667 184.833 78.667 189.167 78 193.5C74.329 196.396 71.329 195.729 69 191.5C67.285 188.565 65.452 185.732 63.5 183C64.904 180.473 66.904 178.64 69.5 177.5Z" fill="#F48A9E"/>
<path fill-rule="evenodd" clip-rule="evenodd" d="M391.5 179.5C389.885 182.45 387.885 185.116 385.5 187.5C383.126 185.599 382.959 183.265 385 180.5C386.571 178.077 388.737 176.744 391.5 176.5C391.5 177.5 391.5 178.5 391.5 179.5Z" fill="#F7EDE5"/>
<path fill-rule="evenodd" clip-rule="evenodd" d="M390.5 171.5C392.06 173.129 391.727 174.296 389.5 175C390.833 175.333 392.167 175.667 393.5 176C392.915 177.302 392.249 178.469 391.5 179.5C391.5 178.5 391.5 177.5 391.5 176.5C388.737 176.744 386.571 178.077 385 180.5C382.959 183.265 383.126 185.599 385.5 187.5C384.391 188.29 383.058 188.79 381.5 189C382.416 189.278 383.082 189.778 383.5 190.5C381.983 190.511 380.816 191.177 380 192.5C379.503 195.146 379.336 197.813 379.5 200.5C378.069 200.881 377.236 201.881 377 203.5C376.667 203.167 376.333 202.833 376 202.5C375.503 204.81 375.337 207.143 375.5 209.5C372.645 193.733 377.645 181.066 390.5 171.5Z" fill="#F0A2AA"/>
<path fill-rule="evenodd" clip-rule="evenodd" d="M41.5 179.5C48.665 178.497 51.498 181.497 50 188.5C49.311 189.357 48.478 190.023 47.5 190.5C46.949 188.587 46.782 186.587 47 184.5C42.779 182.697 40.612 184.197 40.5 189C40.599 192.932 42.599 195.099 46.5 195.5C49.871 193.768 53.204 192.101 56.5 190.5C55.834 197.33 52.001 200.997 45 201.5C38.823 200.498 35.989 196.832 36.5 190.5C36.281 185.94 37.948 182.273 41.5 179.5Z" fill="#F5F4DC"/>
<path fill-rule="evenodd" clip-rule="evenodd" d="M281.5 193.5C297.712 193.54 303.212 201.206 298 216.5C286.916 226.011 278.583 224.011 273 210.5C271.706 202.661 274.54 196.994 281.5 193.5Z" fill="#61255D"/>
<path fill-rule="evenodd" clip-rule="evenodd" d="M89.5 149.5C92.889 151.725 95.389 154.725 97 158.5C108.715 186.855 101.215 208.522 74.5 223.5C70.033 224.695 65.699 226.029 61.5 227.5C53.826 227.666 46.159 227.5 38.5 227C34.419 225.529 30.419 223.862 26.5 222C25.5939 220.301 25.2606 218.467 25.5 216.5C25.5 216.167 25.5 215.833 25.5 215.5C43.678 222.221 61.012 220.388 77.5 210C96.547 192.849 100.547 172.682 89.5 149.5Z" fill="#67B6AA"/>
<path fill-rule="evenodd" clip-rule="evenodd" d="M178.5 193.5C194.734 193.559 200.234 201.225 195 216.5C187.292 224.489 179.625 224.489 172 216.5C167.02 206.608 169.187 198.942 178.5 193.5Z" fill="#62255E"/>
<path fill-rule="evenodd" clip-rule="evenodd" d="M259.5 196.5C258.833 197.833 257.833 198.833 256.5 199.5C255.903 198.861 255.07 198.528 254 198.5C248.918 199.864 243.752 200.531 238.5 200.5C237.5 200.5 236.5 200.5 235.5 200.5C228.646 200.176 221.979 200.509 215.5 201.5C214.167 200.833 213.167 199.833 212.5 198.5C228.248 200.14 243.915 199.473 259.5 196.5Z" fill="#B593A2"/>
<path fill-rule="evenodd" clip-rule="evenodd" d="M262.5 210.5C262.5 205.833 262.5 201.167 262.5 196.5C263.386 195.224 264.386 195.224 265.5 196.5C263.947 201.123 262.947 205.789 262.5 210.5Z" fill="#A4768D"/>
<path fill-rule="evenodd" clip-rule="evenodd" d="M281.5 200.5C285.161 200.35 286.161 201.85 284.5 205C283.207 205.49 281.873 205.657 280.5 205.5C280.366 203.708 280.699 202.042 281.5 200.5Z" fill="#E7E8E8"/>
<path fill-rule="evenodd" clip-rule="evenodd" d="M259.5 196.5C260.5 196.5 261.5 196.5 262.5 196.5C262.5 201.167 262.5 205.833 262.5 210.5C262.611 217.906 260.611 224.573 256.5 230.5C255.942 229.21 254.942 228.377 253.5 228C248.576 228.161 244.243 226.828 240.5 224C237.833 223.333 235.167 223.333 232.5 224C227.551 227.752 224.551 232.585 223.5 238.5C217.007 235.216 213.174 229.883 212 222.5C210.599 214.86 209.432 207.194 208.5 199.5C207.448 199.649 206.448 199.483 205.5 199C207.81 198.503 210.143 198.337 212.5 198.5C213.167 199.833 214.167 200.833 215.5 201.5C220.647 203.429 225.98 203.929 231.5 203C233.32 202.8 234.653 201.966 235.5 200.5C236.5 200.5 237.5 200.5 238.5 200.5C244.557 203.317 250.557 202.984 256.5 199.5C257.833 198.833 258.833 197.833 259.5 196.5Z" fill="#61235D"/>
<path fill-rule="evenodd" clip-rule="evenodd" d="M215.5 201.5C221.979 200.509 228.646 200.176 235.5 200.5C234.653 201.966 233.32 202.8 231.5 203C225.98 203.929 220.647 203.429 215.5 201.5Z" fill="#E6D7D7"/>
<path fill-rule="evenodd" clip-rule="evenodd" d="M256.5 199.5C250.557 202.984 244.557 203.317 238.5 200.5C243.752 200.531 248.918 199.864 254 198.5C255.07 198.528 255.903 198.861 256.5 199.5Z" fill="#E3D4D5"/>
<path fill-rule="evenodd" clip-rule="evenodd" d="M177.5 200.5C181.138 199.737 182.638 201.07 182 204.5C177.415 206.413 175.915 205.079 177.5 200.5Z" fill="#DAD8D8"/>
<path fill-rule="evenodd" clip-rule="evenodd" d="M456.5 175.5C465.143 186.683 467.976 199.35 465 213.5C463.194 218.446 460.861 223.112 458 227.5C454.271 231.398 450.438 235.065 446.5 238.5C444.847 238.66 443.514 239.326 442.5 240.5C437.054 242.792 431.387 244.459 425.5 245.5C420.833 245.5 416.167 245.5 411.5 245.5C398.953 243.403 389.286 237.07 382.5 226.5C382.435 226.062 382.601 225.728 383 225.5C386.813 228.878 390.98 231.712 395.5 234C413.289 239.624 429.956 237.458 445.5 227.5C460.903 213.28 464.237 196.446 455.5 177C455.57 176.235 455.903 175.735 456.5 175.5Z" fill="#F87995"/>
<path fill-rule="evenodd" clip-rule="evenodd" d="M25.5 215.5C25.5 215.833 25.5 216.167 25.5 216.5C24.5111 221.975 24.1777 227.642 24.4999 233.5C21.5202 233.759 19.6869 232.426 18.9999 229.5C18.2937 225.113 18.4604 220.78 19.5 216.5C20.0185 214.099 21.1852 212.099 23 210.5C25.1566 211.385 25.9899 213.052 25.5 215.5Z" fill="#F6BA79"/>
<path fill-rule="evenodd" clip-rule="evenodd" d="M331.5 150.5C332.167 150.833 332.833 151.167 333.5 151.5C333.5 152.167 333.833 152.5 334.5 152.5C335.436 153.974 336.77 154.974 338.5 155.5C338.833 155.5 339.167 155.5 339.5 155.5C352.813 168.692 362.313 184.359 368 202.5C372.842 222.561 375.675 242.895 376.5 263.5C374.099 261.938 372.099 262.271 370.5 264.5C369.222 264.782 368.222 265.449 367.5 266.5C366.624 266.631 365.957 266.298 365.5 265.5C367.156 262.34 366.823 259.506 364.5 257C365.574 256.261 366.241 255.261 366.5 254C365.387 252.606 364.053 251.439 362.5 250.5C363.415 249.672 364.081 248.672 364.5 247.5C364.41 243.707 363.076 240.54 360.5 238C364.311 235.597 364.311 233.264 360.5 231C361.91 230.632 362.91 229.799 363.5 228.5C362.045 226.78 361.212 224.78 361 222.5C360.25 221.874 359.416 221.374 358.5 221C360.208 216.383 359.541 212.216 356.5 208.5C358.27 207.293 359.27 205.626 359.5 203.5C358.533 200.771 357.2 198.271 355.5 196C356.428 195.612 357.095 194.945 357.5 194C354.662 190.979 352.329 187.479 350.5 183.5C350.931 182.707 351.265 181.873 351.5 181C349.419 178.259 348.085 175.092 347.5 171.5C345.891 169.06 343.557 167.893 340.5 168C341.022 167.439 341.355 166.772 341.5 166C339.477 163.825 338.143 161.325 337.5 158.5C336.167 158.5 334.833 158.5 333.5 158.5C333.643 156.738 333.309 155.071 332.5 153.5C329.347 152.79 329.013 151.79 331.5 150.5Z" fill="#F7B5B8"/>
<path fill-rule="evenodd" clip-rule="evenodd" d="M166.5 222.5C173.838 221.986 178.505 225.153 180.5 232C178.039 239.068 173.039 241.735 165.5 240C160.879 237.923 159.045 234.423 160 229.5C161.694 226.642 163.861 224.309 166.5 222.5Z" fill="#F8809A"/>
<path fill-rule="evenodd" clip-rule="evenodd" d="M256.5 230.5C255.797 232.716 254.464 234.549 252.5 236C243.142 242.196 233.475 243.03 223.5 238.5C224.551 232.585 227.551 227.752 232.5 224C235.167 223.333 237.833 223.333 240.5 224C244.243 226.828 248.576 228.161 253.5 228C254.942 228.377 255.942 229.21 256.5 230.5Z" fill="#F3899E"/>
<path fill-rule="evenodd" clip-rule="evenodd" d="M299.5 222.5C311.455 221.925 315.455 227.092 311.5 238C304.48 242.054 298.313 241.22 293 235.5C291.992 229.516 294.159 225.182 299.5 222.5Z" fill="#F87C98"/>
<path fill-rule="evenodd" clip-rule="evenodd" d="M74.5 223.5C74.926 234.109 77.592 244.109 82.5 253.5C82.5 254.5 82.5 255.5 82.5 256.5C80.669 257.052 79.003 257.052 77.5 256.5C80.42 253.495 79.754 251.662 75.5 251C75.833 250 76.167 249 76.5 248C72.898 247.365 72.232 246.032 74.5 244C73.663 242.989 73.33 241.822 73.5 240.5C72.448 240.649 71.448 240.483 70.5 240C71.574 239.261 72.241 238.261 72.5 237C71.209 234.629 70.209 232.129 69.5 229.5C66.856 230.295 64.189 230.962 61.5 231.5C61.5 230.167 61.5 228.833 61.5 227.5C65.699 226.029 70.033 224.695 74.5 223.5Z" fill="#A37090"/>
<path fill-rule="evenodd" clip-rule="evenodd" d="M82.5 253.5C86.833 258.5 91.5 263.167 96.5 267.5C95.687 275.138 95.354 282.804 95.5 290.5C73.243 277.218 61.909 257.551 61.5 231.5C64.189 230.962 66.856 230.295 69.5 229.5C70.209 232.129 71.209 234.629 72.5 237C72.241 238.261 71.574 239.261 70.5 240C71.448 240.483 72.448 240.649 73.5 240.5C73.33 241.822 73.663 242.989 74.5 244C72.232 246.032 72.898 247.365 76.5 248C76.167 249 75.833 250 75.5 251C79.754 251.662 80.42 253.495 77.5 256.5C79.003 257.052 80.669 257.052 82.5 256.5C82.5 255.5 82.5 254.5 82.5 253.5Z" fill="#B5849F"/>
<path fill-rule="evenodd" clip-rule="evenodd" d="M442.5 240.5C442.371 242.216 442.038 243.883 441.5 245.5C438.62 249.548 437.954 253.881 439.5 258.5C440.203 262.909 442.203 266.576 445.5 269.5C445.786 274.532 444.452 279.032 441.5 283C434.743 284.317 431.743 288.484 432.5 295.5C431.13 297.25 430.13 299.25 429.5 301.5C428.248 303.001 427.248 304.668 426.5 306.5C425.026 307.436 424.026 308.77 423.5 310.5C421.5 312.167 419.5 313.833 417.5 315.5C414.552 317.362 411.552 319.029 408.5 320.5C405.933 320.721 403.599 321.388 401.5 322.5C399.167 322.5 396.833 322.5 394.5 322.5C391.794 322.425 389.127 322.092 386.5 321.5C383.656 320.69 380.99 319.356 378.5 317.5C379.114 313.865 379.448 310.198 379.5 306.5C403.893 303.946 418.727 290.612 424 266.5C425.087 259.54 425.587 252.54 425.5 245.5C431.387 244.459 437.054 242.792 442.5 240.5Z" fill="#C0D1CC"/>
<path fill-rule="evenodd" clip-rule="evenodd" d="M467.5 240.5C470.22 243.06 472.386 246.06 474 249.5C476.364 267.306 468.864 274.639 451.5 271.5C457.162 269.88 461.828 266.546 465.5 261.5C464.674 260.549 464.508 259.549 465 258.5C466.011 259.337 467.178 259.67 468.5 259.5C467.994 256.569 467.994 253.735 468.5 251C466.522 247.601 466.188 244.101 467.5 240.5Z" fill="#FAA76A"/>
<path fill-rule="evenodd" clip-rule="evenodd" d="M439.5 258.5C437.954 253.881 438.62 249.548 441.5 245.5C441.714 247.144 441.38 248.644 440.5 250C441.865 251.682 443.365 251.849 445 250.5C444.782 248.413 444.949 246.413 445.5 244.5C446.863 243.121 447.863 243.287 448.5 245C447.464 247.774 446.631 250.607 446 253.5C444.192 253.888 442.525 253.888 441 253.5C440.647 254.672 440.813 255.838 441.5 257C441.07 257.965 440.404 258.465 439.5 258.5Z" fill="#F5C993"/>
<path fill-rule="evenodd" clip-rule="evenodd" d="M367.5 266.5C368.222 265.449 369.222 264.782 370.5 264.5C370.511 269.12 369.511 273.454 367.5 277.5C369.104 279.179 369.771 281.179 369.5 283.5C365.665 284.004 365.665 285.004 369.5 286.5C368.482 287.852 367.149 288.852 365.5 289.5C365.987 290.446 366.32 291.446 366.5 292.5C365.673 295.485 364.673 298.485 363.5 301.5C365.005 302.842 365.672 304.508 365.5 306.5C364.325 306.281 363.325 306.614 362.5 307.5C363.689 308.429 365.022 308.762 366.5 308.5C362.391 313.948 357.391 318.281 351.5 321.5C348.891 316.617 345.557 312.284 341.5 308.5C326.468 321.368 311.302 334.035 296 346.5C287.333 335.833 278.667 325.167 270 314.5C255.293 327.542 240.293 340.209 225 352.5C213.598 339.764 202.931 326.43 193 312.5C181.981 322.353 170.814 332.02 159.5 341.5C148.288 327.782 137.621 313.615 127.5 299C126.833 298.333 126.167 298.333 125.5 299C120.5 303.5 115.5 308 110.5 312.5C105.491 305.804 100.491 299.137 95.5 292.5C95.5 291.833 95.5 291.167 95.5 290.5C95.354 282.804 95.687 275.138 96.5 267.5C97.698 260.981 98.864 254.314 100 247.5C100.278 246.584 100.778 245.918 101.5 245.5C102.627 244.878 103.627 244.045 104.5 243C105.5 242.333 106.5 242.333 107.5 243C110.38 247.258 112.88 251.758 115 256.5C115.899 258.327 117.233 259.66 119 260.5C124 256.002 129.167 251.669 134.5 247.5C144.529 261.696 154.362 276.029 164 290.5C164.561 291.022 165.228 291.355 166 291.5C176.008 282.659 186.175 273.993 196.5 265.5C205.803 278.96 215.636 291.96 226 304.5C240.667 291.833 255.333 279.167 270 266.5C279.313 278.323 288.48 290.323 297.5 302.5C311.352 290.147 325.352 277.98 339.5 266C340.635 265.251 341.635 265.417 342.5 266.5C345.187 271.219 348.354 275.552 352 279.5C357.639 275.692 362.805 271.358 367.5 266.5Z" fill="#F9C076"/>
<path fill-rule="evenodd" clip-rule="evenodd" d="M411.5 249.5C412.334 250.748 413.667 251.415 415.5 251.5C417.674 250.956 419.674 250.956 421.5 251.5C420.269 255.918 419.769 260.252 420 264.5C418.842 266.491 417.342 268.158 415.5 269.5C415.987 270.446 416.32 271.446 416.5 272.5C415.715 276.456 413.381 278.623 409.5 279C411.318 282.387 410.318 284.387 406.5 285C405.469 289.569 402.802 291.402 398.5 290.5C397.571 291.689 397.238 293.022 397.5 294.5C395.167 294.5 392.833 294.5 390.5 294.5C390.853 296.635 390.02 297.968 388 298.5C384.966 297.873 382.132 296.873 379.5 295.5C379.5 292.167 379.5 288.833 379.5 285.5C393.022 284.811 402.188 278.144 407 265.5C408.527 260.044 410.027 254.711 411.5 249.5Z" fill="#B5859E"/>
<path fill-rule="evenodd" clip-rule="evenodd" d="M105.5 247.5C108.907 248.174 110.24 250.341 109.5 254C109.829 257.502 108.662 260.336 106 262.5C105.228 262.355 104.561 262.022 104 261.5C103.221 256.682 103.721 252.015 105.5 247.5Z" fill="#FAF6E2"/>
<path fill-rule="evenodd" clip-rule="evenodd" d="M467.5 240.5C466.188 244.101 466.522 247.601 468.5 251C467.994 253.735 467.994 256.569 468.5 259.5C467.178 259.67 466.011 259.337 465 258.5C464.508 259.549 464.674 260.549 465.5 261.5C461.828 266.546 457.162 269.88 451.5 271.5C450.5 271.5 449.5 271.5 448.5 271.5C447.71 270.599 446.71 269.932 445.5 269.5C442.203 266.576 440.203 262.909 439.5 258.5C440.404 258.465 441.07 257.965 441.5 257C440.813 255.838 440.647 254.672 441 253.5C442.525 253.888 444.192 253.888 446 253.5C446.631 250.607 447.464 247.774 448.5 245C447.863 243.287 446.863 243.121 445.5 244.5C444.949 246.413 444.782 248.413 445 250.5C443.365 251.849 441.865 251.682 440.5 250C441.38 248.644 441.714 247.144 441.5 245.5C442.038 243.883 442.371 242.216 442.5 240.5C443.514 239.326 444.847 238.66 446.5 238.5C453.832 235.439 460.832 236.106 467.5 240.5Z" fill="#F8BC77"/>
<path fill-rule="evenodd" clip-rule="evenodd" d="M453.5 243.5C462.088 243.398 464.421 247.064 460.5 254.5C451.508 255.473 449.175 251.806 453.5 243.5Z" fill="#5F2560"/>
<path fill-rule="evenodd" clip-rule="evenodd" d="M376.5 263.5C378.159 270.6 379.159 277.933 379.5 285.5C379.5 288.833 379.5 292.167 379.5 295.5C379.5 298.5 379.5 301.5 379.5 304.5C379.167 304.5 378.833 304.5 378.5 304.5C376.076 304.192 373.743 304.526 371.5 305.5C370.2 307.051 368.533 308.051 366.5 308.5C365.022 308.762 363.689 308.429 362.5 307.5C363.325 306.614 364.325 306.281 365.5 306.5C365.672 304.508 365.005 302.842 363.5 301.5C364.673 298.485 365.673 295.485 366.5 292.5C366.32 291.446 365.987 290.446 365.5 289.5C367.149 288.852 368.482 287.852 369.5 286.5C365.665 285.004 365.665 284.004 369.5 283.5C369.771 281.179 369.104 279.179 367.5 277.5C369.511 273.454 370.511 269.12 370.5 264.5C372.099 262.271 374.099 261.938 376.5 263.5Z" fill="#FAAA68"/>
<path fill-rule="evenodd" clip-rule="evenodd" d="M411.5 245.5C416.167 245.5 420.833 245.5 425.5 245.5C425.587 252.54 425.087 259.54 424 266.5C418.727 290.612 403.893 303.946 379.5 306.5C379.5 305.833 379.5 305.167 379.5 304.5C379.5 301.5 379.5 298.5 379.5 295.5C382.132 296.873 384.966 297.873 388 298.5C390.02 297.968 390.853 296.635 390.5 294.5C392.833 294.5 395.167 294.5 397.5 294.5C397.238 293.022 397.571 291.689 398.5 290.5C402.802 291.402 405.469 289.569 406.5 285C410.318 284.387 411.318 282.387 409.5 279C413.381 278.623 415.715 276.456 416.5 272.5C416.32 271.446 415.987 270.446 415.5 269.5C417.342 268.158 418.842 266.491 420 264.5C419.769 260.252 420.269 255.918 421.5 251.5C419.674 250.956 417.674 250.956 415.5 251.5C413.667 251.415 412.334 250.748 411.5 249.5C411.5 248.167 411.5 246.833 411.5 245.5Z" fill="#A66F92"/>
<path fill-rule="evenodd" clip-rule="evenodd" d="M39.5 285.5C35.281 287.24 30.947 288.573 26.5 289.5C24.2756 285.789 23.9423 281.789 25.5 277.5C20.9114 270.656 16.0781 263.99 11 257.5C10.2286 249.614 13.7286 246.781 21.5 249C28.16 254.145 27.994 259.312 21 264.5C20.6818 268.705 22.1818 272.205 25.5 275C33.461 272.646 38.461 275.48 40.5 283.5C40.137 284.183 39.804 284.85 39.5 285.5Z" fill="#96CCB1"/>
<path fill-rule="evenodd" clip-rule="evenodd" d="M445.5 269.5C446.71 269.932 447.71 270.599 448.5 271.5C447.247 275.339 445.913 279.172 444.5 283C447.838 288.14 448.171 293.307 445.5 298.5C440.814 298.881 436.481 297.881 432.5 295.5C431.743 288.484 434.743 284.317 441.5 283C444.452 279.032 445.786 274.532 445.5 269.5Z" fill="#8ECAAE"/>
<path fill-rule="evenodd" clip-rule="evenodd" d="M39.5 285.5C40.5 285.5 41.5 285.5 42.5 285.5C42.993 287.806 43.326 290.139 43.5 292.5C38.698 294.881 33.698 296.881 28.5 298.5C27.087 295.781 26.42 292.781 26.5 289.5C30.947 288.573 35.281 287.24 39.5 285.5Z" fill="#F8ECC9"/>
<path fill-rule="evenodd" clip-rule="evenodd" d="M43.5 292.5C44.737 293.965 45.737 295.632 46.5 297.5C42.39 302.261 37.39 305.928 31.5 308.5C29.723 305.495 28.723 302.162 28.5 298.5C33.698 296.881 38.698 294.881 43.5 292.5Z" fill="#F598A7"/>
<path fill-rule="evenodd" clip-rule="evenodd" d="M432.5 295.5C436.481 297.881 440.814 298.881 445.5 298.5C445.806 301.385 445.473 304.052 444.5 306.5C439.438 305.035 434.438 303.368 429.5 301.5C430.13 299.25 431.13 297.25 432.5 295.5Z" fill="#F0E0C9"/>
<path fill-rule="evenodd" clip-rule="evenodd" d="M95.5 292.5C100.491 299.137 105.491 305.804 110.5 312.5C115.5 308 120.5 303.5 125.5 299C126.167 298.333 126.833 298.333 127.5 299C137.621 313.615 148.288 327.782 159.5 341.5C170.814 332.02 181.981 322.353 193 312.5C202.931 326.43 213.598 339.764 225 352.5C240.293 340.209 255.293 327.542 270 314.5C278.667 325.167 287.333 335.833 296 346.5C311.302 334.035 326.468 321.368 341.5 308.5C345.557 312.284 348.891 316.617 351.5 321.5C348.873 320.908 346.206 320.575 343.5 320.5C342.224 325.627 340.891 330.793 339.5 336C340.895 338.075 340.562 339.908 338.5 341.5C339.95 342.85 340.617 344.516 340.5 346.5C325.1 358.389 310.1 370.889 295.5 384C294.391 384.638 293.225 385.138 292 385.5C284.312 377.132 277.312 368.132 271 358.5C269.867 356.789 268.367 356.289 266.5 357C252.285 370.218 237.785 383.051 223 395.5C221.739 395.241 220.739 394.574 220 393.5C210.305 380.099 200.138 367.099 189.5 354.5C179.163 364.003 168.663 373.337 158 382.5C147.833 370.705 138 358.538 128.5 346C127.5 345.333 126.5 345.333 125.5 346C120.212 351.633 114.545 356.8 108.5 361.5C105.792 359.734 103.792 357.401 102.5 354.5C101.157 348.333 99.49 342.333 97.5 336.5C97.825 328.648 97.492 320.982 96.5 313.5C95.911 306.515 95.578 299.515 95.5 292.5Z" fill="#93CCAA"/>
<path fill-rule="evenodd" clip-rule="evenodd" d="M46.5 297.5C47.82 299.463 49.154 301.463 50.5 303.5C45.906 307.755 41.239 312.089 36.5 316.5C34.347 314.206 32.68 311.54 31.5 308.5C37.39 305.928 42.39 302.261 46.5 297.5Z" fill="#F8E8CD"/>
<path fill-rule="evenodd" clip-rule="evenodd" d="M50.5 303.5C51.833 305.5 53.167 307.5 54.5 309.5C50.454 314.214 46.788 319.214 43.5 324.5C39.783 323.08 37.45 320.413 36.5 316.5C41.239 312.089 45.906 307.755 50.5 303.5Z" fill="#F497A5"/>
<path fill-rule="evenodd" clip-rule="evenodd" d="M429.5 301.5C434.438 303.368 439.438 305.035 444.5 306.5C444.416 309.327 443.75 311.994 442.5 314.5C440.932 315.473 439.265 315.64 437.5 315C433.362 312.685 429.695 309.852 426.5 306.5C427.248 304.668 428.248 303.001 429.5 301.5Z" fill="#F893A4"/>
<path fill-rule="evenodd" clip-rule="evenodd" d="M54.5 309.5C56.749 310.08 58.415 311.413 59.5 313.5C55.395 318.709 52.062 324.375 49.5 330.5C47.167 328.833 45.167 326.833 43.5 324.5C46.788 319.214 50.454 314.214 54.5 309.5Z" fill="#F7E3CA"/>
<path fill-rule="evenodd" clip-rule="evenodd" d="M426.5 306.5C429.695 309.852 433.362 312.685 437.5 315C439.265 315.64 440.932 315.473 442.5 314.5C440.814 317.696 438.814 320.696 436.5 323.5C434.167 321.5 431.833 319.5 429.5 317.5C428.219 314.553 426.219 312.219 423.5 310.5C424.026 308.77 425.026 307.436 426.5 306.5Z" fill="#EEDFCC"/>
<path fill-rule="evenodd" clip-rule="evenodd" d="M423.5 310.5C426.219 312.219 428.219 314.553 429.5 317.5C426.833 319.833 424.167 322.167 421.5 324.5C421.167 324.5 420.833 324.5 420.5 324.5C419.698 321.426 418.698 318.426 417.5 315.5C419.5 313.833 421.5 312.167 423.5 310.5Z" fill="#F89CA7"/>
<path fill-rule="evenodd" clip-rule="evenodd" d="M59.5 313.5C61.703 313.604 63.703 314.27 65.5 315.5C63.649 322.199 60.983 328.532 57.5 334.5C54.515 333.674 51.849 332.341 49.5 330.5C52.062 324.375 55.395 318.709 59.5 313.5Z" fill="#F596A3"/>
<path fill-rule="evenodd" clip-rule="evenodd" d="M378.5 304.5C378.833 304.5 379.167 304.5 379.5 304.5C379.5 305.167 379.5 305.833 379.5 306.5C379.448 310.198 379.114 313.865 378.5 317.5C377.111 322.269 376.444 327.269 376.5 332.5C375.297 342.794 372.63 352.794 368.5 362.5C365.353 362.737 362.353 363.57 359.5 365C358.619 365.708 357.953 366.542 357.5 367.5C355.027 367.912 353.694 366.912 353.5 364.5C355.199 364.66 356.866 364.494 358.5 364C358.167 363.667 357.833 363.333 357.5 363C359.679 362.558 360.345 361.558 359.5 360C362.525 359.846 364.191 358.346 364.5 355.5C360.939 355.085 361.106 354.085 365 352.5C365.049 347.936 365.883 343.603 367.5 339.5C367.244 338.311 366.911 337.144 366.5 336C369.833 334.201 370.166 332.034 367.5 329.5C368.436 326.032 370.103 323.032 372.5 320.5C370.309 318.792 369.976 316.792 371.5 314.5C371.278 312.945 370.611 311.611 369.5 310.5C372.27 308.046 375.27 306.046 378.5 304.5Z" fill="#71BCA8"/>
<path fill-rule="evenodd" clip-rule="evenodd" d="M96.5 313.5C97.492 320.982 97.825 328.648 97.5 336.5C96.5 336.5 95.5 336.5 94.5 336.5C94.1 330.171 93.767 323.838 93.5 317.5C94.5 317.5 95.5 317.5 96.5 317.5C96.5 316.167 96.5 314.833 96.5 313.5Z" fill="#B0C8B3"/>
<path fill-rule="evenodd" clip-rule="evenodd" d="M417.5 315.5C418.698 318.426 419.698 321.426 420.5 324.5C417.055 324.589 413.388 325.256 409.5 326.5C409.167 324.5 408.833 322.5 408.5 320.5C411.552 319.029 414.552 317.362 417.5 315.5Z" fill="#F9EBCE"/>
<path fill-rule="evenodd" clip-rule="evenodd" d="M65.5 315.5C67.368 316.263 69.035 317.263 70.5 318.5C70.062 325.356 68.729 332.023 66.5 338.5C63.186 337.607 60.186 336.274 57.5 334.5C60.983 328.532 63.649 322.199 65.5 315.5Z" fill="#F5E3C7"/>
<path fill-rule="evenodd" clip-rule="evenodd" d="M70.5 318.5C73.127 319.092 75.794 319.425 78.5 319.5C77.702 326.15 77.035 332.817 76.5 339.5C72.958 339.813 69.625 339.479 66.5 338.5C68.729 332.023 70.062 325.356 70.5 318.5Z" fill="#F594A6"/>
<path fill-rule="evenodd" clip-rule="evenodd" d="M378.5 317.5C380.99 319.356 383.656 320.69 386.5 321.5C385.81 327.81 385.476 334.143 385.5 340.5C379.245 341.236 376.245 338.57 376.5 332.5C376.444 327.269 377.111 322.269 378.5 317.5Z" fill="#E8C0A3"/>
<path fill-rule="evenodd" clip-rule="evenodd" d="M386.5 321.5C389.127 322.092 391.794 322.425 394.5 322.5C394.5 328.833 394.5 335.167 394.5 341.5C391.287 341.81 388.287 341.477 385.5 340.5C385.476 334.143 385.81 327.81 386.5 321.5Z" fill="#F88D9C"/>
<path fill-rule="evenodd" clip-rule="evenodd" d="M87.5 338.5C86.5 338.5 85.5 338.5 84.5 338.5C84.9 332.171 85.233 325.838 85.5 319.5C87.717 318.631 90.05 318.298 92.5 318.5C92.666 324.509 92.499 330.509 92 336.5C90.67 337.582 89.17 338.249 87.5 338.5Z" fill="#F88AA1"/>
<path fill-rule="evenodd" clip-rule="evenodd" d="M378.5 304.5C375.27 306.046 372.27 308.046 369.5 310.5C370.611 311.611 371.278 312.945 371.5 314.5C369.976 316.792 370.309 318.792 372.5 320.5C370.103 323.032 368.436 326.032 367.5 329.5C370.166 332.034 369.833 334.201 366.5 336C366.911 337.144 367.244 338.311 367.5 339.5C365.883 343.603 365.049 347.936 365 352.5C361.106 354.085 360.939 355.085 364.5 355.5C364.191 358.346 362.525 359.846 359.5 360C360.345 361.558 359.679 362.558 357.5 363C357.833 363.333 358.167 363.667 358.5 364C356.866 364.494 355.199 364.66 353.5 364.5C348.689 358.891 344.356 352.891 340.5 346.5C340.617 344.516 339.95 342.85 338.5 341.5C340.562 339.908 340.895 338.075 339.5 336C340.891 330.793 342.224 325.627 343.5 320.5C346.206 320.575 348.873 320.908 351.5 321.5C357.391 318.281 362.391 313.948 366.5 308.5C368.533 308.051 370.2 307.051 371.5 305.5C373.743 304.526 376.076 304.192 378.5 304.5Z" fill="#84C6A9"/>
<path fill-rule="evenodd" clip-rule="evenodd" d="M408.5 320.5C408.833 322.5 409.167 324.5 409.5 326.5C410.038 328.117 410.371 329.784 410.5 331.5C408.527 332.487 406.527 333.487 404.5 334.5C403.548 336.045 403.215 337.712 403.5 339.5C401.988 334.071 401.321 328.404 401.5 322.5C403.599 321.388 405.933 320.721 408.5 320.5Z" fill="#F795A7"/>
<path fill-rule="evenodd" clip-rule="evenodd" d="M429.5 317.5C431.833 319.5 434.167 321.5 436.5 323.5C434.167 327.833 430.833 331.167 426.5 333.5C423.585 331.349 421.918 328.349 421.5 324.5C424.167 322.167 426.833 319.833 429.5 317.5Z" fill="#F57F97"/>
<path fill-rule="evenodd" clip-rule="evenodd" d="M420.5 324.5C420.833 324.5 421.167 324.5 421.5 324.5C421.918 328.349 423.585 331.349 426.5 333.5C421.85 335.805 417.183 338.138 412.5 340.5C412.084 337.417 411.417 334.417 410.5 331.5C410.371 329.784 410.038 328.117 409.5 326.5C413.388 325.256 417.055 324.589 420.5 324.5Z" fill="#E5C8AE"/>
<path fill-rule="evenodd" clip-rule="evenodd" d="M78.5 319.5C80.833 319.5 83.167 319.5 85.5 319.5C85.233 325.838 84.9 332.171 84.5 338.5C85.5 338.5 86.5 338.5 87.5 338.5C84.038 339.482 80.371 339.815 76.5 339.5C77.035 332.817 77.702 326.15 78.5 319.5Z" fill="#E6D1B9"/>
<path fill-rule="evenodd" clip-rule="evenodd" d="M394.5 322.5C396.833 322.5 399.167 322.5 401.5 322.5C401.321 328.404 401.988 334.071 403.5 339.5C403.5 340.167 403.5 340.833 403.5 341.5C400.5 341.5 397.5 341.5 394.5 341.5C394.5 335.167 394.5 328.833 394.5 322.5Z" fill="#E6D5BC"/>
<path fill-rule="evenodd" clip-rule="evenodd" d="M410.5 331.5C411.417 334.417 412.084 337.417 412.5 340.5C409.518 340.963 406.518 341.296 403.5 341.5C403.5 340.833 403.5 340.167 403.5 339.5C403.215 337.712 403.548 336.045 404.5 334.5C406.527 333.487 408.527 332.487 410.5 331.5Z" fill="#F77892"/>
<path fill-rule="evenodd" clip-rule="evenodd" d="M340.5 346.5C344.356 352.891 348.689 358.891 353.5 364.5C353.694 366.912 355.027 367.912 357.5 367.5C357.5 369.833 357.5 372.167 357.5 374.5C356.022 374.238 354.689 374.571 353.5 375.5C354.854 379.09 353.521 380.756 349.5 380.5C349.44 384.514 347.773 387.681 344.5 390C343.551 390.617 342.718 390.451 342 389.5C340.492 391.838 338.325 392.838 335.5 392.5C335.67 393.822 335.337 394.989 334.5 396C331.119 396.061 328.286 397.227 326 399.5C324.774 399.355 323.607 399.022 322.5 398.5C319.493 401.545 316.326 403.545 313 404.5C311.441 403.971 309.941 403.304 308.5 402.5C306.826 403.88 305.16 405.213 303.5 406.5C300.804 404.56 299.471 405.227 299.5 408.5C293.719 409.615 287.885 409.615 282 408.5C278.629 409.62 275.296 410.62 272 411.5C270.667 410.833 269.333 410.167 268 409.5C266.333 410.5 264.667 411.5 263 412.5C261.856 412.089 260.689 411.756 259.5 411.5C256.015 412.416 252.515 413.416 249 414.5C247.715 414.05 246.548 413.383 245.5 412.5C244.312 413.84 242.812 414.507 241 414.5C232.806 413.482 224.973 413.482 217.5 414.5C215.403 416.11 213.07 417.277 210.5 418C212.382 418.198 214.048 418.698 215.5 419.5C208.073 419.151 200.74 418.151 193.5 416.5C185.085 415.684 176.751 414.35 168.5 412.5C150.799 408.481 134.799 400.981 120.5 390C111.031 379.558 105.031 367.725 102.5 354.5C103.792 357.401 105.792 359.734 108.5 361.5C114.545 356.8 120.212 351.633 125.5 346C126.5 345.333 127.5 345.333 128.5 346C138 358.538 147.833 370.705 158 382.5C168.663 373.337 179.163 364.003 189.5 354.5C200.138 367.099 210.305 380.099 220 393.5C220.739 394.574 221.739 395.241 223 395.5C237.785 383.051 252.285 370.218 266.5 357C268.367 356.289 269.867 356.789 271 358.5C277.312 368.132 284.312 377.132 292 385.5C293.225 385.138 294.391 384.638 295.5 384C310.1 370.889 325.1 358.389 340.5 346.5Z" fill="#B5859D"/>
<path fill-rule="evenodd" clip-rule="evenodd" d="M368.5 362.5C362.246 382.918 349.246 397.085 329.5 405C320.413 408.714 311.08 411.547 301.5 413.5C301.247 417.04 300.581 420.373 299.5 423.5C291.833 423.5 284.167 423.5 276.5 423.5C276.5 421.5 276.5 419.5 276.5 417.5C268.114 417.743 259.78 418.577 251.5 420C239.467 420.771 227.467 420.605 215.5 419.5C214.048 418.698 212.382 418.198 210.5 418C213.07 417.277 215.403 416.11 217.5 414.5C224.973 413.482 232.806 413.482 241 414.5C242.812 414.507 244.312 413.84 245.5 412.5C246.548 413.383 247.715 414.05 249 414.5C252.515 413.416 256.015 412.416 259.5 411.5C260.689 411.756 261.856 412.089 263 412.5C264.667 411.5 266.333 410.5 268 409.5C269.333 410.167 270.667 410.833 272 411.5C275.296 410.62 278.629 409.62 282 408.5C287.885 409.615 293.719 409.615 299.5 408.5C299.471 405.227 300.804 404.56 303.5 406.5C305.16 405.213 306.826 403.88 308.5 402.5C309.941 403.304 311.441 403.971 313 404.5C316.326 403.545 319.493 401.545 322.5 398.5C323.607 399.022 324.774 399.355 326 399.5C328.286 397.227 331.119 396.061 334.5 396C335.337 394.989 335.67 393.822 335.5 392.5C338.325 392.838 340.492 391.838 342 389.5C342.718 390.451 343.551 390.617 344.5 390C347.773 387.681 349.44 384.514 349.5 380.5C353.521 380.756 354.854 379.09 353.5 375.5C354.689 374.571 356.022 374.238 357.5 374.5C357.5 372.167 357.5 369.833 357.5 367.5C357.953 366.542 358.619 365.708 359.5 365C362.353 363.57 365.353 362.737 368.5 362.5Z" fill="#A97095"/>
<path fill-rule="evenodd" clip-rule="evenodd" d="M168.5 412.5C176.751 414.35 185.085 415.684 193.5 416.5C194.219 418.764 194.552 421.097 194.5 423.5C187.687 424.491 180.687 424.825 173.5 424.5C171.835 420.505 170.168 416.505 168.5 412.5Z" fill="#AE7496"/>
<path fill-rule="evenodd" clip-rule="evenodd" d="M276.5 423.5C284.167 423.5 291.833 423.5 299.5 423.5C299.167 426.167 298.833 428.833 298.5 431.5C290.471 431.656 282.471 431.323 274.5 430.5C274.721 427.933 275.388 425.599 276.5 423.5Z" fill="#E0BFA6"/>
<path fill-rule="evenodd" clip-rule="evenodd" d="M194.5 423.5C196.163 425.438 196.829 427.772 196.5 430.5C194.097 430.448 191.764 430.781 189.5 431.5C185.232 432.373 180.898 432.706 176.5 432.5C174.345 430.383 173.345 427.716 173.5 424.5C180.687 424.825 187.687 424.491 194.5 423.5Z" fill="#F0D8BD"/>
<path fill-rule="evenodd" clip-rule="evenodd" d="M189.5 431.5C188.601 434.028 187.601 436.528 186.5 439C188.134 439.494 189.801 439.66 191.5 439.5C187.03 440.486 182.363 440.819 177.5 440.5C176.908 437.873 176.575 435.206 176.5 432.5C180.898 432.706 185.232 432.373 189.5 431.5Z" fill="#FB95A3"/>
<path fill-rule="evenodd" clip-rule="evenodd" d="M196.5 430.5C197.417 433.417 198.084 436.417 198.5 439.5C196.167 439.5 193.833 439.5 191.5 439.5C189.801 439.66 188.134 439.494 186.5 439C187.601 436.528 188.601 434.028 189.5 431.5C191.764 430.781 194.097 430.448 196.5 430.5Z" fill="#F57D97"/>
<path fill-rule="evenodd" clip-rule="evenodd" d="M274.5 430.5C282.471 431.323 290.471 431.656 298.5 431.5C297.833 434.5 297.167 437.5 296.5 440.5C288.809 440.597 281.142 440.263 273.5 439.5C273.508 436.455 273.841 433.455 274.5 430.5Z" fill="#BB80A3"/>
<path fill-rule="evenodd" clip-rule="evenodd" d="M191.5 439.5C193.833 439.5 196.167 439.5 198.5 439.5C199.268 441.715 199.935 444.048 200.5 446.5C195.751 447.418 190.918 448.085 186 448.5C184.014 448.569 182.514 449.235 181.5 450.5C180.869 448.025 179.869 445.691 178.5 443.5C178.443 442.391 178.11 441.391 177.5 440.5C182.363 440.819 187.03 440.486 191.5 439.5Z" fill="#F0DCC2"/>
<path fill-rule="evenodd" clip-rule="evenodd" d="M273.5 439.5C281.142 440.263 288.809 440.597 296.5 440.5C295.766 441.708 295.433 443.041 295.5 444.5C294.388 446.599 293.721 448.933 293.5 451.5C293.167 451.5 292.833 451.5 292.5 451.5C292.5 450.833 292.5 450.167 292.5 449.5C285.687 448.509 278.687 448.175 271.5 448.5C271.676 445.273 272.343 442.273 273.5 439.5Z" fill="#F1DCC1"/>
<path fill-rule="evenodd" clip-rule="evenodd" d="M295.5 444.5C300.795 444.65 305.128 446.65 308.5 450.5C310.891 452.615 312.224 455.281 312.5 458.5C309.328 460.252 306.328 462.252 303.5 464.5C300.16 460.161 296.826 455.828 293.5 451.5C293.721 448.933 294.388 446.599 295.5 444.5Z" fill="#63C0B8"/>
<path fill-rule="evenodd" clip-rule="evenodd" d="M158.5 450.5C157.5 455.833 156.5 461.167 155.5 466.5C151.36 466.529 147.36 467.196 143.5 468.5C139.728 465.906 136.061 463.073 132.5 460C131.207 459.51 129.873 459.343 128.5 459.5C127.081 458.549 125.415 458.216 123.5 458.5C122.87 449.596 126.536 443.096 134.5 439C145.303 437.236 153.303 441.07 158.5 450.5Z" fill="#6BC2BC"/>
<path fill-rule="evenodd" clip-rule="evenodd" d="M200.5 446.5C201.434 447.568 201.768 448.901 201.5 450.5C201.512 453.142 200.179 454.475 197.5 454.5C192.5 454.5 187.5 454.5 182.5 454.5C181.766 453.292 181.433 451.959 181.5 450.5C182.514 449.235 184.014 448.569 186 448.5C190.918 448.085 195.751 447.418 200.5 446.5Z" fill="#F88E99"/>
<path fill-rule="evenodd" clip-rule="evenodd" d="M271.5 448.5C278.687 448.175 285.687 448.509 292.5 449.5C289.5 449.5 286.5 449.5 283.5 449.5C283.122 451.921 282.455 454.254 281.5 456.5C278.478 456.196 275.478 455.696 272.5 455C271.027 454.29 270.36 453.124 270.5 451.5C270.263 450.209 270.596 449.209 271.5 448.5Z" fill="#FA9B9E"/>
<path fill-rule="evenodd" clip-rule="evenodd" d="M335.5 441.5C331.881 440.756 328.215 440.423 324.5 440.5C324.5 441.5 324.5 442.5 324.5 443.5C329.446 443.709 330.779 445.709 328.5 449.5C329.833 450.833 331.167 452.167 332.5 453.5C332.135 454.902 331.301 455.902 330 456.5C328.056 455.312 326.556 453.646 325.5 451.5C324.261 453.007 324.595 454.174 326.5 455C326.026 456.729 325.026 457.895 323.5 458.5C319.833 458.5 316.167 458.5 312.5 458.5C312.224 455.281 310.891 452.615 308.5 450.5C311.743 440.206 318.743 436.04 329.5 438C331.727 438.941 333.727 440.108 335.5 441.5Z" fill="#F9C280"/>
<path fill-rule="evenodd" clip-rule="evenodd" d="M344.5 451.5C345.674 452.514 346.34 453.847 346.5 455.5C346.5 458.5 346.5 461.5 346.5 464.5C343.751 466.997 341.751 469.997 340.5 473.5C338.847 470.869 337.181 468.203 335.5 465.5C336.207 463.866 337.373 462.532 339 461.5C339.334 459.153 339.167 456.819 338.5 454.5C339.5 454.5 340.5 454.5 341.5 454.5C341.185 452.774 341.019 451.107 341 449.5C341.915 450.328 342.581 451.328 343 452.5C343.383 451.944 343.883 451.611 344.5 451.5Z" fill="#FBA969"/>
<path fill-rule="evenodd" clip-rule="evenodd" d="M292.5 449.5C292.5 450.167 292.5 450.833 292.5 451.5C292.5 452.5 292.5 453.5 292.5 454.5C291.662 454.842 291.328 455.508 291.5 456.5C288.5 456.5 285.5 456.5 282.5 456.5C282.167 456.5 281.833 456.5 281.5 456.5C282.455 454.254 283.122 451.921 283.5 449.5C286.5 449.5 289.5 449.5 292.5 449.5Z" fill="#F47D95"/>
<path fill-rule="evenodd" clip-rule="evenodd" d="M270.5 451.5C270.36 453.124 271.027 454.29 272.5 455C275.478 455.696 278.478 456.196 281.5 456.5C281.833 456.5 282.167 456.5 282.5 456.5C282.5 457.5 282.5 458.5 282.5 459.5C278.167 459.5 273.833 459.5 269.5 459.5C269.194 456.615 269.527 453.948 270.5 451.5Z" fill="#F4D6CB"/>
<path fill-rule="evenodd" clip-rule="evenodd" d="M201.5 450.5C202.477 453.287 202.81 456.287 202.5 459.5C202.5 460.5 202.5 461.5 202.5 462.5C201.833 462.167 201.167 461.833 200.5 461.5C198.393 460.532 196.059 460.198 193.5 460.5C194.568 459.566 195.901 459.232 197.5 459.5C197.5 457.833 197.5 456.167 197.5 454.5C200.179 454.475 201.512 453.142 201.5 450.5Z" fill="#E3C0AB"/>
<path fill-rule="evenodd" clip-rule="evenodd" d="M292.5 451.5C292.833 451.5 293.167 451.5 293.5 451.5C296.826 455.828 300.16 460.161 303.5 464.5C301.92 467.659 300.92 470.993 300.5 474.5C299.067 472.481 297.733 470.314 296.5 468C294.649 467.163 292.816 466.329 291 465.5C291.159 461.83 291.659 458.163 292.5 454.5C292.5 453.5 292.5 452.5 292.5 451.5Z" fill="#49AAA8"/>
<path fill-rule="evenodd" clip-rule="evenodd" d="M335.5 441.5C339.918 443.583 342.918 446.916 344.5 451.5C343.883 451.611 343.383 451.944 343 452.5C342.581 451.328 341.915 450.328 341 449.5C341.019 451.107 341.185 452.774 341.5 454.5C340.5 454.5 339.5 454.5 338.5 454.5C339.167 456.819 339.334 459.153 339 461.5C337.373 462.532 336.207 463.866 335.5 465.5C333.999 464.248 332.332 463.248 330.5 462.5C329.486 461.326 328.153 460.66 326.5 460.5C325.5 459.833 324.5 459.167 323.5 458.5C325.026 457.895 326.026 456.729 326.5 455C324.595 454.174 324.261 453.007 325.5 451.5C326.556 453.646 328.056 455.312 330 456.5C331.301 455.902 332.135 454.902 332.5 453.5C331.167 452.167 329.833 450.833 328.5 449.5C330.779 445.709 329.446 443.709 324.5 443.5C324.5 442.5 324.5 441.5 324.5 440.5C328.215 440.423 331.881 440.756 335.5 441.5Z" fill="#F9B977"/>
<path fill-rule="evenodd" clip-rule="evenodd" d="M182.5 454.5C187.5 454.5 192.5 454.5 197.5 454.5C197.5 456.167 197.5 457.833 197.5 459.5C195.901 459.232 194.568 459.566 193.5 460.5C190.061 460.788 186.728 461.454 183.5 462.5C183.425 459.794 183.092 457.127 182.5 454.5Z" fill="#F4E5C2"/>
<path fill-rule="evenodd" clip-rule="evenodd" d="M282.5 456.5C285.5 456.5 288.5 456.5 291.5 456.5C290.766 457.708 290.433 459.041 290.5 460.5C287.833 460.5 285.167 460.5 282.5 460.5C282.5 460.167 282.5 459.833 282.5 459.5C282.5 458.5 282.5 457.5 282.5 456.5Z" fill="#EFB1AF"/>
<path fill-rule="evenodd" clip-rule="evenodd" d="M224.5 471.5C221.406 472.213 218.406 473.213 215.5 474.5C215.167 473.5 214.5 472.833 213.5 472.5C210.096 468.95 206.429 465.617 202.5 462.5C202.5 461.5 202.5 460.5 202.5 459.5C203.451 458.081 203.784 456.415 203.5 454.5C214.104 452.883 221.604 456.883 226 466.5C226.64 468.543 226.14 470.21 224.5 471.5Z" fill="#94CEB1"/>
<path fill-rule="evenodd" clip-rule="evenodd" d="M346.5 455.5C347.451 456.919 347.784 458.585 347.5 460.5C351.042 460.187 354.375 460.521 357.5 461.5C353.708 462.241 350.041 463.241 346.5 464.5C346.5 461.5 346.5 458.5 346.5 455.5Z" fill="#E6CDB6"/>
<path fill-rule="evenodd" clip-rule="evenodd" d="M200.5 461.5C201.167 461.833 201.833 462.167 202.5 462.5C206.429 465.617 210.096 468.95 213.5 472.5C211.601 473.045 209.934 472.378 208.5 470.5C205.754 467.813 202.42 466.98 198.5 468C197.378 469.613 197.878 470.78 200 471.5C200.601 472.965 200.101 473.965 198.5 474.5C197.852 472.851 196.852 471.518 195.5 470.5C194.614 471.325 194.281 472.325 194.5 473.5C192.5 473.167 190.5 472.833 188.5 472.5C188.38 475.205 189.38 475.872 191.5 474.5C192.747 476.006 192.747 477.506 191.5 479C193.587 478.782 195.587 478.949 197.5 479.5C195.841 482.91 193.341 484.243 190 483.5C187.027 486.021 185.193 489.188 184.5 493C183.207 493.49 181.873 493.657 180.5 493.5C180.671 490.203 180.005 489.869 178.5 492.5C176.955 493.452 175.288 493.785 173.5 493.5C173.702 495.95 173.369 498.283 172.5 500.5C170.369 494.493 171.536 489.159 176 484.5C176.497 482.19 176.663 479.857 176.5 477.5C177.944 474.11 180.61 472.777 184.5 473.5C183.987 471.71 183.487 470.044 183 468.5C183.333 468.833 183.667 469.167 184 469.5C186.684 468.932 189.184 467.932 191.5 466.5C190.5 465.667 189.5 464.833 188.5 464C190.39 462.888 192.39 462.054 194.5 461.5C196.568 462.653 198.568 462.653 200.5 461.5Z" fill="#F691A2"/>
<path fill-rule="evenodd" clip-rule="evenodd" d="M178.5 443.5C179.869 445.691 180.869 448.025 181.5 450.5C181.433 451.959 181.766 453.292 182.5 454.5C183.092 457.127 183.425 459.794 183.5 462.5C177.983 465.862 175.316 470.862 175.5 477.5C172.134 477.212 168.8 477.046 165.5 477C161.573 482.218 159.24 488.051 158.5 494.5C156.132 495.014 154.132 496.18 152.5 498C147.967 499.128 143.967 498.295 140.5 495.5C138.742 496.128 137.242 497.128 136 498.5C135.667 497.833 135.333 497.167 135 496.5C133.211 498.229 131.044 498.896 128.5 498.5C125.826 497.501 125.159 495.834 126.5 493.5C126.063 482.354 131.063 475.02 141.5 471.5C146.167 471.5 150.833 471.5 155.5 471.5C155.5 469.833 155.5 468.167 155.5 466.5C156.5 461.167 157.5 455.833 158.5 450.5C160.934 448.251 163.601 446.084 166.5 444C170.486 443.501 174.486 443.334 178.5 443.5Z" fill="#99CCAB"/>
<path fill-rule="evenodd" clip-rule="evenodd" d="M271.5 460.5C271.297 462.044 270.63 463.378 269.5 464.5C267.219 465.185 264.886 465.351 262.5 465C263.708 467.25 265.041 469.417 266.5 471.5C265.885 473.116 264.885 474.449 263.5 475.5C265.092 477.225 264.758 478.225 262.5 478.5C261.008 475.677 258.674 474.01 255.5 473.5C255.389 472.883 255.056 472.383 254.5 472C250.93 470.69 247.263 469.857 243.5 469.5C243.933 466.805 245.266 464.638 247.5 463C253.763 459.907 260.097 459.74 266.5 462.5C268.056 461.453 269.723 460.786 271.5 460.5Z" fill="#70CBC1"/>
<path fill-rule="evenodd" clip-rule="evenodd" d="M330.5 462.5C332.332 463.248 333.999 464.248 335.5 465.5C337.181 468.203 338.847 470.869 340.5 473.5C340.5 474.167 340.5 474.833 340.5 475.5C336.112 475.872 333.112 478.205 331.5 482.5C329.517 481.529 327.517 480.529 325.5 479.5C327.481 477.856 329.481 476.19 331.5 474.5C330.5 473.167 329.5 471.833 328.5 470.5C329.025 469.808 329.692 469.308 330.5 469C330.656 467.33 329.99 465.663 328.5 464C328.836 462.97 329.503 462.47 330.5 462.5Z" fill="#B2839F"/>
<path fill-rule="evenodd" clip-rule="evenodd" d="M292.5 454.5C291.659 458.163 291.159 461.83 291 465.5C292.816 466.329 294.649 467.163 296.5 468C297.733 470.314 299.067 472.481 300.5 474.5C300.254 477.47 298.588 478.803 295.5 478.5C294.194 476.527 292.527 474.861 290.5 473.5C283.216 468.146 275.882 468.313 268.5 474C267.285 476.375 265.619 478.209 263.5 479.5C262.833 479.5 262.5 479.167 262.5 478.5C264.758 478.225 265.092 477.225 263.5 475.5C264.885 474.449 265.885 473.116 266.5 471.5C265.041 469.417 263.708 467.25 262.5 465C264.886 465.351 267.219 465.185 269.5 464.5C270.63 463.378 271.297 462.044 271.5 460.5C275.167 460.5 278.833 460.5 282.5 460.5C285.167 460.5 287.833 460.5 290.5 460.5C290.433 459.041 290.766 457.708 291.5 456.5C291.328 455.508 291.662 454.842 292.5 454.5Z" fill="#6ABFBA"/>
<path fill-rule="evenodd" clip-rule="evenodd" d="M193.5 460.5C196.059 460.198 198.393 460.532 200.5 461.5C198.568 462.653 196.568 462.653 194.5 461.5C192.39 462.054 190.39 462.888 188.5 464C189.5 464.833 190.5 465.667 191.5 466.5C189.184 467.932 186.684 468.932 184 469.5C183.667 469.167 183.333 468.833 183 468.5C183.487 470.044 183.987 471.71 184.5 473.5C180.61 472.777 177.944 474.11 176.5 477.5C176.167 477.5 175.833 477.5 175.5 477.5C175.316 470.862 177.983 465.862 183.5 462.5C186.728 461.454 190.061 460.788 193.5 460.5Z" fill="#F09AA8"/>
<path fill-rule="evenodd" clip-rule="evenodd" d="M155.5 466.5C155.5 468.167 155.5 469.833 155.5 471.5C150.833 471.5 146.167 471.5 141.5 471.5C142.551 470.778 143.218 469.778 143.5 468.5C147.36 467.196 151.36 466.529 155.5 466.5Z" fill="#D5C3AA"/>
<path fill-rule="evenodd" clip-rule="evenodd" d="M312.5 458.5C316.167 458.5 319.833 458.5 323.5 458.5C324.5 459.167 325.5 459.833 326.5 460.5C325.466 461.687 324.133 462.52 322.5 463C323.386 464.902 323.053 466.735 321.5 468.5C320.586 466.336 319.419 464.336 318 462.5C315.84 464.163 313.673 465.83 311.5 467.5C310.614 468.325 310.281 469.325 310.5 470.5C311.5 470.5 312.5 470.5 313.5 470.5C313.793 472.689 314.293 474.689 315 476.5C312.713 475.526 310.713 474.193 309 472.5C308.506 474.134 308.34 475.801 308.5 477.5C307.167 477.5 305.833 477.5 304.5 477.5C304.5 478.5 304.5 479.5 304.5 480.5C305.675 480.281 306.675 480.614 307.5 481.5C305.294 485.756 304.961 490.09 306.5 494.5C306.5 494.833 306.5 495.167 306.5 495.5C304.403 497.482 301.736 498.482 298.5 498.5C298.5 497.5 298.5 496.5 298.5 495.5C297.5 495.5 296.5 495.5 295.5 495.5C296.78 489.847 296.78 484.18 295.5 478.5C298.588 478.803 300.254 477.47 300.5 474.5C300.92 470.993 301.92 467.659 303.5 464.5C306.328 462.252 309.328 460.252 312.5 458.5Z" fill="#C99CB1"/>
<path fill-rule="evenodd" clip-rule="evenodd" d="M326.5 460.5C328.153 460.66 329.486 461.326 330.5 462.5C329.503 462.47 328.836 462.97 328.5 464C329.99 465.663 330.656 467.33 330.5 469C329.692 469.308 329.025 469.808 328.5 470.5C329.5 471.833 330.5 473.167 331.5 474.5C329.481 476.19 327.481 477.856 325.5 479.5C313.451 477.568 307.118 482.568 306.5 494.5C304.961 490.09 305.294 485.756 307.5 481.5C306.675 480.614 305.675 480.281 304.5 480.5C304.5 479.5 304.5 478.5 304.5 477.5C305.833 477.5 307.167 477.5 308.5 477.5C308.34 475.801 308.506 474.134 309 472.5C310.713 474.193 312.713 475.526 315 476.5C314.293 474.689 313.793 472.689 313.5 470.5C312.5 470.5 311.5 470.5 310.5 470.5C310.281 469.325 310.614 468.325 311.5 467.5C313.673 465.83 315.84 464.163 318 462.5C319.419 464.336 320.586 466.336 321.5 468.5C323.053 466.735 323.386 464.902 322.5 463C324.133 462.52 325.466 461.687 326.5 460.5Z" fill="#C893AC"/>
<path fill-rule="evenodd" clip-rule="evenodd" d="M128.5 459.5C129.873 459.343 131.207 459.51 132.5 460C136.061 463.073 139.728 465.906 143.5 468.5C143.218 469.778 142.551 470.778 141.5 471.5C131.063 475.02 126.063 482.354 126.5 493.5C118.143 494.154 111.81 490.82 107.5 483.5C103.691 466.299 110.691 458.299 128.5 459.5Z" fill="#F890A1"/>
<path fill-rule="evenodd" clip-rule="evenodd" d="M357.5 461.5C360.614 461.555 362.948 462.888 364.5 465.5C365.066 468.583 365.066 471.583 364.5 474.5C365.167 475.167 365.833 475.833 366.5 476.5C365.5 480.833 362.833 483.5 358.5 484.5C357.575 485.357 356.908 486.357 356.5 487.5C355.599 486.71 354.932 485.71 354.5 484.5C353.64 480.974 351.64 478.307 348.5 476.5C345.914 475.52 343.247 475.187 340.5 475.5C340.5 474.833 340.5 474.167 340.5 473.5C341.751 469.997 343.751 466.997 346.5 464.5C350.041 463.241 353.708 462.241 357.5 461.5Z" fill="#F9BD7B"/>
<path fill-rule="evenodd" clip-rule="evenodd" d="M290.5 473.5C288.396 473.201 286.396 473.534 284.5 474.5C284.977 475.478 285.643 476.311 286.5 477C285.267 480.738 286.267 483.905 289.5 486.5C287.985 488.547 287.151 490.881 287 493.5C285.412 496.309 283.245 496.975 280.5 495.5C277.772 499.739 274.105 500.572 269.5 498C267.65 497.31 266.316 496.144 265.5 494.5C265.985 489.271 265.318 484.271 263.5 479.5C265.619 478.209 267.285 476.375 268.5 474C275.882 468.313 283.216 468.146 290.5 473.5Z" fill="#F9C0C3"/>
<path fill-rule="evenodd" clip-rule="evenodd" d="M340.5 475.5C343.247 475.187 345.914 475.52 348.5 476.5C351.64 478.307 353.64 480.974 354.5 484.5C353.603 483.402 352.77 483.402 352 484.5C351.692 483.692 351.192 483.025 350.5 482.5C349.741 485.157 349.074 487.823 348.5 490.5C347.675 491.386 346.675 491.719 345.5 491.5C346.244 494.95 344.91 496.616 341.5 496.5C341.719 495.325 341.386 494.325 340.5 493.5C339.391 494.59 338.391 494.59 337.5 493.5C339.817 491.401 339.983 489.068 338 486.5C337.59 487.901 337.09 489.234 336.5 490.5C334.847 487.869 333.181 485.203 331.5 482.5C333.112 478.205 336.112 475.872 340.5 475.5Z" fill="#9BCAAC"/>
<path fill-rule="evenodd" clip-rule="evenodd" d="M107.5 483.5C111.81 490.82 118.143 494.154 126.5 493.5C125.159 495.834 125.826 497.501 128.5 498.5C129.141 499.482 129.807 500.482 130.5 501.5C139.81 502.498 149.143 502.832 158.5 502.5C161.197 505.098 164.363 506.765 168 507.5C170.742 507.884 172.575 506.884 173.5 504.5C173.833 504.5 174.167 504.5 174.5 504.5C178.552 509.952 184.052 511.952 191 510.5C198.891 512.155 205.058 509.822 209.5 503.5C214.484 505.566 219.65 507.233 225 508.5C230.981 508.425 235.814 506.092 239.5 501.5C248.072 507.963 256.738 507.963 265.5 501.5C273.381 507.337 281.714 508.004 290.5 503.5C297.131 504.331 303.798 504.664 310.5 504.5C311.316 506.144 312.65 507.31 314.5 508C319.167 508.667 323.833 508.667 328.5 508C333.399 506.615 335.733 503.448 335.5 498.5C335.833 498.5 336.167 498.5 336.5 498.5C336.5 499.833 336.5 501.167 336.5 502.5C341.692 502.727 346.692 501.893 351.5 500C354.072 497.687 355.739 494.854 356.5 491.5C362.872 492.315 367.538 489.981 370.5 484.5C376.777 485.984 382.777 488.151 388.5 491C393.994 495.509 393.661 499.509 387.5 503C374.647 508.547 361.314 512.547 347.5 515C310.879 520.041 274.046 522.208 237 521.5C191.672 522.44 146.838 518.273 102.5 509C95.992 507.124 89.659 504.79 83.5 502C79.228 499.307 78.561 495.973 81.5 492C89.564 486.588 98.231 483.755 107.5 483.5Z" fill="#A4CABF"/>
<path fill-rule="evenodd" clip-rule="evenodd" d="M243.5 469.5C247.263 469.857 250.93 470.69 254.5 472C255.056 472.383 255.389 472.883 255.5 473.5C252.813 473.336 250.146 473.503 247.5 474C252.708 475.682 252.708 477.182 247.5 478.5C245.941 477.926 244.441 477.26 243 476.5C242.833 476.833 242.667 477.167 242.5 477.5C245.128 478.466 247.128 480.132 248.5 482.5C248.471 484.029 247.804 485.196 246.5 486C246.833 486.333 247.167 486.667 247.5 487C246.241 487.923 244.908 488.757 243.5 489.5C246.316 488.87 248.982 489.536 251.5 491.5C251.023 492.478 250.357 493.311 249.5 494C247.126 493.598 244.793 493.764 242.5 494.5C240.653 491.798 239.487 488.798 239 485.5C237.312 483.812 235.645 482.145 234 480.5C231.363 481.101 230.196 482.767 230.5 485.5C231.5 485.5 232.5 485.5 233.5 485.5C233.753 487.827 233.086 489.827 231.5 491.5C232.95 492.85 233.617 494.516 233.5 496.5C232.167 496.5 230.833 496.5 229.5 496.5C229.714 498.144 229.38 499.644 228.5 501C225.657 501.446 222.824 501.946 220 502.5C216.071 501.45 212.571 499.783 209.5 497.5C209.119 494.042 208.619 490.708 208 487.5C209.497 482.523 211.997 478.19 215.5 474.5C218.406 473.213 221.406 472.213 224.5 471.5C228.401 470.857 231.734 471.857 234.5 474.5C237.071 472.048 240.071 470.381 243.5 469.5Z" fill="#FABD7B"/>
<path fill-rule="evenodd" clip-rule="evenodd" d="M175.5 477.5C175.833 477.5 176.167 477.5 176.5 477.5C176.663 479.857 176.497 482.19 176 484.5C171.536 489.159 170.369 494.493 172.5 500.5C172.833 501.833 173.167 503.167 173.5 504.5C172.575 506.884 170.742 507.884 168 507.5C164.363 506.765 161.197 505.098 158.5 502.5C158.5 499.833 158.5 497.167 158.5 494.5C159.24 488.051 161.573 482.218 165.5 477C168.8 477.046 172.134 477.212 175.5 477.5Z" fill="#67BFBA"/>
<path fill-rule="evenodd" clip-rule="evenodd" d="M290.5 473.5C292.527 474.861 294.194 476.527 295.5 478.5C296.78 484.18 296.78 489.847 295.5 495.5C293.336 497.822 291.669 500.489 290.5 503.5C281.714 508.004 273.381 507.337 265.5 501.5C265.5 499.167 265.5 496.833 265.5 494.5C266.316 496.144 267.65 497.31 269.5 498C274.105 500.572 277.772 499.739 280.5 495.5C283.245 496.975 285.412 496.309 287 493.5C287.151 490.881 287.985 488.547 289.5 486.5C286.267 483.905 285.267 480.738 286.5 477C285.643 476.311 284.977 475.478 284.5 474.5C286.396 473.534 288.396 473.201 290.5 473.5Z" fill="#F7AFB3"/>
<path fill-rule="evenodd" clip-rule="evenodd" d="M364.5 465.5C365.496 465.414 366.329 465.748 367 466.5C371.259 471.908 372.425 477.908 370.5 484.5C367.538 489.981 362.872 492.315 356.5 491.5C356.5 490.167 356.5 488.833 356.5 487.5C356.908 486.357 357.575 485.357 358.5 484.5C362.833 483.5 365.5 480.833 366.5 476.5C365.833 475.833 365.167 475.167 364.5 474.5C365.066 471.583 365.066 468.583 364.5 465.5Z" fill="#FAA768"/>
<path fill-rule="evenodd" clip-rule="evenodd" d="M325.5 479.5C327.517 480.529 329.517 481.529 331.5 482.5C333.181 485.203 334.847 487.869 336.5 490.5C336.5 493.167 336.5 495.833 336.5 498.5C336.167 498.5 335.833 498.5 335.5 498.5C335.492 495.455 335.159 492.455 334.5 489.5C331.412 489.197 329.746 490.53 329.5 493.5C324.167 494.167 324.167 494.833 329.5 495.5C329.5 496.833 329.5 498.167 329.5 499.5C327.086 500.751 324.753 502.251 322.5 504C318.916 504.846 315.583 504.346 312.5 502.5C311.584 502.543 310.917 502.876 310.5 503.5C308.975 500.921 307.641 498.254 306.5 495.5C306.5 495.167 306.5 494.833 306.5 494.5C307.118 482.568 313.451 477.568 325.5 479.5Z" fill="#F88E9F"/>
<path fill-rule="evenodd" clip-rule="evenodd" d="M354.5 484.5C354.932 485.71 355.599 486.71 356.5 487.5C356.5 488.833 356.5 490.167 356.5 491.5C355.739 494.854 354.072 497.687 351.5 500C346.692 501.893 341.692 502.727 336.5 502.5C336.5 501.167 336.5 499.833 336.5 498.5C336.5 495.833 336.5 493.167 336.5 490.5C337.09 489.234 337.59 487.901 338 486.5C339.983 489.068 339.817 491.401 337.5 493.5C338.391 494.59 339.391 494.59 340.5 493.5C341.386 494.325 341.719 495.325 341.5 496.5C344.91 496.616 346.244 494.95 345.5 491.5C346.675 491.719 347.675 491.386 348.5 490.5C349.074 487.823 349.741 485.157 350.5 482.5C351.192 483.025 351.692 483.692 352 484.5C352.77 483.402 353.603 483.402 354.5 484.5Z" fill="#74BFA8"/>
<path fill-rule="evenodd" clip-rule="evenodd" d="M158.5 494.5C158.5 497.167 158.5 499.833 158.5 502.5C149.143 502.832 139.81 502.498 130.5 501.5C129.807 500.482 129.141 499.482 128.5 498.5C131.044 498.896 133.211 498.229 135 496.5C135.333 497.167 135.667 497.833 136 498.5C137.242 497.128 138.742 496.128 140.5 495.5C143.967 498.295 147.967 499.128 152.5 498C154.132 496.18 156.132 495.014 158.5 494.5Z" fill="#73C0AD"/>
<path fill-rule="evenodd" clip-rule="evenodd" d="M208.5 470.5C207.759 474.649 205.925 478.316 203 481.5C202.272 484.23 202.438 486.897 203.5 489.5C201.776 492.95 201.109 496.617 201.5 500.5C199.833 500.5 198.167 500.5 196.5 500.5C196.5 501.5 196.5 502.5 196.5 503.5C189.088 503.861 181.755 504.195 174.5 504.5C174.167 504.5 173.833 504.5 173.5 504.5C173.167 503.167 172.833 501.833 172.5 500.5C173.369 498.283 173.702 495.95 173.5 493.5C175.288 493.785 176.955 493.452 178.5 492.5C180.005 489.869 180.671 490.203 180.5 493.5C181.873 493.657 183.207 493.49 184.5 493C185.193 489.188 187.027 486.021 190 483.5C193.341 484.243 195.841 482.91 197.5 479.5C195.587 478.949 193.587 478.782 191.5 479C192.747 477.506 192.747 476.006 191.5 474.5C189.38 475.872 188.38 475.205 188.5 472.5C190.5 472.833 192.5 473.167 194.5 473.5C194.281 472.325 194.614 471.325 195.5 470.5C196.852 471.518 197.852 472.851 198.5 474.5C200.101 473.965 200.601 472.965 200 471.5C197.878 470.78 197.378 469.613 198.5 468C202.42 466.98 205.754 467.813 208.5 470.5Z" fill="#FA8D9E"/>
<path fill-rule="evenodd" clip-rule="evenodd" d="M295.5 495.5C296.5 495.5 297.5 495.5 298.5 495.5C298.5 496.5 298.5 497.5 298.5 498.5C301.736 498.482 304.403 497.482 306.5 495.5C307.641 498.254 308.975 500.921 310.5 503.5C310.5 503.833 310.5 504.167 310.5 504.5C303.798 504.664 297.131 504.331 290.5 503.5C291.669 500.489 293.336 497.822 295.5 495.5Z" fill="#B48CA5"/>
<path fill-rule="evenodd" clip-rule="evenodd" d="M208.5 470.5C209.934 472.378 211.601 473.045 213.5 472.5C214.5 472.833 215.167 473.5 215.5 474.5C211.997 478.19 209.497 482.523 208 487.5C208.619 490.708 209.119 494.042 209.5 497.5C209.5 499.5 209.5 501.5 209.5 503.5C205.058 509.822 198.891 512.155 191 510.5C184.052 511.952 178.552 509.952 174.5 504.5C181.755 504.195 189.088 503.861 196.5 503.5C196.5 502.5 196.5 501.5 196.5 500.5C198.167 500.5 199.833 500.5 201.5 500.5C201.109 496.617 201.776 492.95 203.5 489.5C202.438 486.897 202.272 484.23 203 481.5C205.925 478.316 207.759 474.649 208.5 470.5Z" fill="#F97890"/>
<path fill-rule="evenodd" clip-rule="evenodd" d="M255.5 473.5C258.674 474.01 261.008 475.677 262.5 478.5C262.5 479.167 262.833 479.5 263.5 479.5C265.318 484.271 265.985 489.271 265.5 494.5C265.5 496.833 265.5 499.167 265.5 501.5C256.738 507.963 248.072 507.963 239.5 501.5C235.814 506.092 230.981 508.425 225 508.5C219.65 507.233 214.484 505.566 209.5 503.5C209.5 501.5 209.5 499.5 209.5 497.5C212.571 499.783 216.071 501.45 220 502.5C222.824 501.946 225.657 501.446 228.5 501C229.38 499.644 229.714 498.144 229.5 496.5C230.833 496.5 232.167 496.5 233.5 496.5C233.617 494.516 232.95 492.85 231.5 491.5C233.086 489.827 233.753 487.827 233.5 485.5C232.5 485.5 231.5 485.5 230.5 485.5C230.196 482.767 231.363 481.101 234 480.5C235.645 482.145 237.312 483.812 239 485.5C239.487 488.798 240.653 491.798 242.5 494.5C244.793 493.764 247.126 493.598 249.5 494C250.357 493.311 251.023 492.478 251.5 491.5C248.982 489.536 246.316 488.87 243.5 489.5C244.908 488.757 246.241 487.923 247.5 487C247.167 486.667 246.833 486.333 246.5 486C247.804 485.196 248.471 484.029 248.5 482.5C247.128 480.132 245.128 478.466 242.5 477.5C242.667 477.167 242.833 476.833 243 476.5C244.441 477.26 245.941 477.926 247.5 478.5C252.708 477.182 252.708 475.682 247.5 474C250.146 473.503 252.813 473.336 255.5 473.5Z" fill="#FAAB69"/>
<path fill-rule="evenodd" clip-rule="evenodd" d="M335.5 498.5C335.733 503.448 333.399 506.615 328.5 508C323.833 508.667 319.167 508.667 314.5 508C312.65 507.31 311.316 506.144 310.5 504.5C310.5 504.167 310.5 503.833 310.5 503.5C310.917 502.876 311.584 502.543 312.5 502.5C315.583 504.346 318.916 504.846 322.5 504C324.753 502.251 327.086 500.751 329.5 499.5C329.5 498.167 329.5 496.833 329.5 495.5C324.167 494.833 324.167 494.167 329.5 493.5C329.746 490.53 331.412 489.197 334.5 489.5C335.159 492.455 335.492 495.455 335.5 498.5Z" fill="#F87890"/>
</svg>
