<svg width="277" height="372" viewBox="0 0 277 372" fill="none" xmlns="http://www.w3.org/2000/svg">
<g clip-path="url(#clip0_116_179)">
<path d="M128 0.399993C104.1 3.49999 80.9 9.69999 61 23.9C-12.8 76.5 -24 196.3 53 251.6C66.6 261.4 82.8 269.4 99 273.9C118.6 279.3 138.9 280.5 159 277.8C177.6 275.3 194.9 268.5 211 259.1C299.2 207.1 296.5 71.7 211 18.5C198.4 10.7 184.4 6.00001 170 3.10001C156.3 0.300006 141.9 -1.40001 128 0.399993Z" fill="#FFF6C3"/>
<path d="M149 12.4C145.4 13.3 141.5 17.2 145.3 20.1C148.2 22.3 154.2 21 157.9 21.6C164.2 22.6 169.7 25 174.8 28.4C193.2 40.8 190.4 56.9 196.1 74.1C197.4 78.1 201.9 80.7 206.6 79.7C220.4 76.8 213.9 54.9 210.9 46.9C203.2 26.5 175.4 5.5 149 12.4Z" fill="#FDB7A2"/>
<path d="M77 30C98.3 30 120.1 33 134.3 51C142.4 61.2 141.2 69.5 144.4 81C145.4 84.5 148.2 87.5 152 87.8C166.7 89.2 160.2 63.4 157.6 56C148.8 31.7 125.1 15.2 99 18.9C90.5 20.1 82.3 22.8 77 30Z" fill="#91D5BB"/>
<path d="M152 30C154.5 36.2 160.5 41.2 163.3 47.4C166.8 55.1 165 64.8 169 71.9C172.7 78.6 184.3 76.4 187.2 70.4C195.6 53.3 173.6 30.1 152 30Z" fill="#F25163"/>
<path d="M152 30C154.5 36.2 160.5 41.2 163.3 47.4C166.8 55.1 165 64.8 169 71.9C172.7 78.6 184.3 76.4 187.2 70.4C195.6 53.3 173.6 30.1 152 30Z" fill="#FDB7A2"/>
<path d="M44.4 64.5C65.4 61 83.5 55.4 103.6 68C108.6 71.1 113.8 74.9 116.9 80.6C120.9 88.2 119.3 104.9 132.2 100.7C146.3 96 136.7 71.3 130.9 63.4C115.9 42.9 86.6 36.1 64.9 45.5C56.6 49.1 47.4 54.7 44.4 64.5Z" fill="#91D5BB"/>
<path d="M215 40C216.3 46.5 219.8 52.5 221.2 59.1C222.7 66 221.2 73 222.2 80C223.3 88 234.3 92.6 239.6 84.4C248.6 70 231.3 42.7 215 40Z" fill="#FDB7A2"/>
<path d="M53.4 66.1C42.7 67.8 30.6 72.1 24.5 81.7C20.8 87.5 19.5 96.9 27.4 100C34.9 102.9 37.7 96.2 42.5 92.4C46.6 89.2 52.3 87.1 57.4 86.2C65.1 84.8 73.3 85.9 80.4 89C85.6 91.3 91.3 96.9 97.4 95.2C108.9 92.1 103 78.7 96.4 74.3C84.3 66.3 67.6 63.9 53.4 66.1Z" fill="#91D5BB"/>
<path d="M272 104V107H273L272 104Z" fill="#7EBBBA"/>
<path d="M274 113V116H275L274 113Z" fill="#7EBBBA"/>
<path d="M275 119V123H276L275 119Z" fill="#7EBBBA"/>
<path d="M117 120L116 125H120L117 120Z" fill="#F1EACD"/>
<path d="M276 127V132H277L276 127Z" fill="#7EBBBA"/>
<path d="M274 168V171H275L274 168Z" fill="#7EBBBA"/>
<path d="M111 173C110.3 176.3 110.2 177.9 113 180L111 173Z" fill="#F1EACD"/>
<path d="M65.7 233C62.4 223.4 56.2 215.2 53 205.6C50.5 198.1 50.7 188.7 47.4 181.8C45.1 177.1 40.2 174.7 35.4 176.7C27.3 180.1 29.7 190.7 32.1 197.3C37.3 212.1 50.1 230 65.7 233ZM63.5 176.6C51.2 181.8 59.4 204.1 63.2 212.7C72.9 234.3 93.8 250.4 116.3 253.2C122.4 254 130.8 256.3 136.3 252.1C139.3 249.8 140.1 245.1 136.3 243.2C130.2 240.2 121.8 242 115.2 239C90.6 228.1 84.1 207.2 76.5 182.8C74.7 177.1 68.9 174.3 63.5 176.6ZM129.8 234.2C126.4 226 119.9 219.4 115.7 211.5C110.5 201.9 109.4 189.6 103.7 180.6C99.3 173.6 87.9 174.1 85.6 182.9C79 207.9 109.2 234.1 129.8 234.2Z" fill="#91D5BB"/>
<path d="M196.1 253.3C174.2 242.7 152.2 239.6 142.2 213.3C140.1 207.9 139 195.5 130.2 199C119.6 203.2 131.8 223.7 135.5 229.3C147.6 247.7 173.9 265.9 196.1 253.3Z" fill="#FDB7A2"/>
<path d="M229 233.3C209.5 234.1 192.3 232.7 176 220.3C168.7 214.7 162 193.7 151 198.1C139.6 202.7 151.8 220 156.4 225.3C170.5 241.1 214.6 257.4 229 233.3Z" fill="#FDB7A2"/>
<path d="M177.3 194.9C165.2 200.1 181.1 213.8 186 216.8C199.1 224.8 216.5 226.9 230.2 219.8C235 217.3 240.7 213.2 242.6 207.1C244.2 201.9 241.3 195.1 236.3 194.6C231.4 194.2 228.1 199.3 224.2 201.6C218.4 205.1 210.7 205.8 204.3 204.6C196.6 203.4 184.3 191.9 177.3 194.9Z" fill="#FDB7A2"/>
<path d="M52.2 166.1C48.9 166.5 45.7 166 42.5 164.6C37.9 162.1 34.6 158.8 32.6 154.7C31 151.8 29.7 147.6 29 142C28.7 137 29.2 131.8 30.7 126.4C32.1 121 34.9 115.6 39 110.3C40.9 107.8 43.2 105.7 46 103.9C48.1 102.5 50.5 101.5 53.2 101L53.9 100.9C56.6 100.5 58.9 100.9 61 101.9C63.1 103 64.4 104.5 64.9 106.6L65.2 108.1C65.5 110.5 65.2 112.8 64.3 115C63.4 117.2 61.8 119.2 59.4 121.1C58.9 121.5 58.4 121.9 57.7 122.2C57.4 122.3 57.1 122.4 56.8 122.5C56.4 122.6 56 122.5 55.6 122.3C55.3 122.1 55.1 121.8 55 121.5C55 121.2 55 120.9 55.2 120.6C56.4 118.3 57.1 116 57.5 113.6C57.6 112.9 57.6 112.3 57.5 111.7C57.3 110.6 56.8 109.5 55.7 108.6C55.3 108.2 55 108.1 54.6 108.1C54.4 108.1 54.1 108.3 53.7 108.5C51.5 110 49.7 111.7 48.3 113.8C44.9 118.9 42.7 124.2 41.7 129.8C40.6 135 40.5 140.1 41.2 145.2C41.3 146 41.4 146.9 41.6 147.7C42.2 150.6 43.3 153.4 45.1 156C45.8 157 46.8 157.9 47.9 158.7C49.5 159.6 51.1 160 52.9 159.7C54 159.6 54.9 159.2 55.9 158.6C59.1 156.6 61.6 154.1 63.2 151.1C65.2 147.4 67 143.6 68.5 139.7L69.5 137.2L70.7 134.1C71.1 133.2 71.6 132.7 72.1 132.7C72.5 132.7 73 132.8 73.7 133.2C74.4 133.6 74.8 133.9 74.8 134.2C74.8 134.3 74.8 134.4 74.8 134.5C74.6 135.3 74.4 136.1 74.1 136.9C72.1 143.1 69.6 149 66.6 154.8C65.2 157.5 63.3 160 60.7 162.2C58.2 164.4 55.3 165.7 52.2 166.1Z" fill="#A28946"/>
<path d="M99.2999 158.6C98.1999 158.7 97.0999 158.7 95.9999 158.3C94.8999 158 93.9999 157.4 93.1999 156.5C91.3999 154.5 90.0999 152.4 89.3999 150C88.6999 147.9 88.1999 145.8 87.8999 143.7C87.4999 141 87.4999 138.2 87.6999 135.4V135.1C87.6999 135 87.5999 134.9 87.4999 134.8C87.3999 134.9 87.2999 135.1 87.1999 135.2C87.0999 135.4 86.8999 135.6 86.7999 135.9L82.8999 142.9C82.2999 143.9 81.6999 144.8 80.7999 145.6C79.7999 146.5 78.6999 147 77.4999 147.2C76.1999 147.4 74.7999 147.1 73.4999 146.2C71.3999 144.7 70.1999 142.7 69.6999 140.5L69.3999 138.8C68.9999 136 69.2999 133.3 70.1999 130.7C71.0999 128.1 72.7999 125.7 75.0999 123.5C75.8999 122.7 76.7999 122.1 77.6999 121.6C78.6999 121.1 79.6999 120.7 80.7999 120.6C81.3999 120.5 82.0999 120.5 82.6999 120.5C86.0999 120.6 88.2999 122 89.4999 124.7C89.4999 124.8 89.5999 124.9 89.5999 125C89.6999 125.1 89.6999 125.2 89.7999 125.4C90.1999 125 90.4999 124.8 90.7999 124.5C91.5999 123.9 92.3999 123.6 93.1999 123.5C93.9999 123.4 94.6999 123.5 95.3999 123.8C96.0999 124.1 96.6999 124.6 97.0999 125.4C97.4999 126.2 97.7999 127 97.8999 127.8C97.9999 128.4 97.9999 129.1 97.9999 129.7L97.7999 133.9C97.5999 135.9 97.4999 138 97.4999 140C97.3999 142.3 97.4999 144.6 97.7999 146.8C98.0999 148.8 98.6999 150.8 99.5999 152.7L99.6999 152.8C99.8999 153.3 100.2 153.8 100.7 154.2C101.2 153.4 101.5 152.5 101.7 151.7C101.7 151.6 101.7 151.6 101.8 151.5C102.5 148.1 103.3 144.5 104.1 140.6C104.9 136.7 105.7 133.1 106.4 129.7L106.5 129.3C106.6 128.7 107.3 128.3 108.5 128.2H108.8C109.5 128.3 109.9 128.6 110 129.1V129.4C110 129.9 109.9 130.5 109.8 131.3C109.7 132.1 109.6 132.9 109.5 133.7C109.4 134.5 109.3 135.2 109.3 135.6C108.3 141.6 107.3 147.6 106.1 153.5C105.6 155.6 104.7 157 103.5 157.6C101.9 158 100.7 158.4 99.2999 158.6ZM77.9999 141.4C78.1999 141.2 78.2999 141 78.4999 140.8C78.7999 140.5 78.9999 140.2 79.1999 139.9C79.8999 138.8 80.6999 137.7 81.3999 136.5C82.7999 134.2 84.2999 132 86.0999 129.9C86.5999 129.3 86.7999 128.7 86.6999 128.1C86.5999 127.6 86.3999 127.2 86.0999 126.8C85.4999 126 84.6999 125.6 83.8999 125.8C83.3999 125.9 82.8999 126.1 82.3999 126.5C81.3999 127.4 80.5999 128.4 80.0999 129.5C78.8999 131.8 78.2999 134.3 78.0999 136.7C77.9999 137.4 77.9999 138 77.8999 138.7C77.8999 139.4 77.8999 140.1 77.9999 140.8V141.4Z" fill="#A28946"/>
<path d="M144.8 157.7C142.9 158 141.1 157.8 139.3 157.1C137.7 156.4 136.4 155.5 135.3 154.4C134.2 153.3 133.3 152.1 132.5 150.7C131.2 148.3 130.2 145.9 129.7 143.3C129.4 142.2 129.2 141.1 129.1 140C128.8 137.9 128.6 135.8 128.6 133.7C128.5 133 128.5 132.3 128.4 131.6C128.3 130.6 128.2 129.7 128.1 128.7C128 127.6 127.7 126.6 127.5 125.5C126.3 126.6 125.3 127.8 124.4 129C121.4 133.2 119.7 137.8 119.3 142.6L118.5 149.6C118.4 150.4 118.2 151.3 117.8 152.1C117.4 153 116.8 153.6 116 154.2C115.2 154.7 114.4 155 113.5 155.2C112.5 155.3 111.4 155.2 110.3 154.8C108.5 154.2 107.1 152.9 106 150.8C104.9 148.7 104.2 146.2 103.8 143.4C103.5 141.1 103.4 138.7 103.5 136.2C103.6 133.7 104 131.4 104.6 129.3C105.2 127.2 106 125.4 107.1 124C108.2 122.6 109.5 121.8 111 121.6C111.4 121.5 111.8 121.5 112.2 121.6C114.4 121.9 115.8 123 116.4 124.7C116.5 125.1 116.7 125.6 116.7 126.1L116.9 127.4C117.2 127 117.5 126.6 117.7 126.3C118 125.8 118.4 125.3 118.8 124.8C120.6 122.3 122.9 120.3 125.7 118.7C127.2 117.9 128.7 117.4 130.1 117.2C131.9 116.9 133.6 117.2 135.1 118.1C136.6 118.9 137.8 120.3 138.6 122.1C139.1 123.4 139.5 124.7 139.7 126.1C139.8 126.9 139.9 127.7 139.9 128.6L140 130.9C140.1 132.5 140.2 134 140.3 135.6V135.7C140.4 137.2 140.5 138.6 140.7 140.1L140.9 141.4C141.2 142.9 141.5 144.4 142 145.8C142.5 147.2 143.2 148.6 144.1 149.9C144.4 150.4 144.8 150.9 145.4 151.3C145.8 151.6 146.2 151.6 146.6 151.6C146.8 151.6 147.1 151.5 147.3 151.4C148.1 150.8 148.6 150.2 149 149.5C150.5 146.8 151.5 144.1 152 141.2C152.9 136.4 153.5 131.5 153.6 126.6L153.7 125.7C153.8 124.6 153.9 123.5 153.7 122.5C153.7 122.2 153.7 121.9 153.8 121.7C153.9 121.5 154.2 121.3 154.6 121.2H154.8C155.1 121.2 155.4 121.2 155.6 121.4C155.8 121.6 156 121.8 156.1 122C156.3 122.6 156.5 123.3 156.6 123.9L156.7 125.1C156.9 128.9 156.9 132.8 156.7 136.6C156.7 137.3 156.7 138 156.6 138.7C156.6 141 156.4 143.2 156.1 145.5C155.7 148.3 154.7 150.9 153.1 153.4C152.2 154.6 151 155.7 149.5 156.5C148.1 157 146.5 157.5 144.8 157.7Z" fill="#A28946"/>
<path d="M185.9 149.4C185.2 149.5 184.5 149.5 183.7 149.4C180.8 149.1 178.5 148 176.6 146.2C173.6 143.2 171.5 139.9 170.3 136.1C169.7 134.1 169.2 132 169 129.9C169 129.7 168.9 129.6 168.9 129.6C168.9 129.6 168.8 129.9 168.7 130.3C168.6 130.8 168.4 131.4 168.2 132.1C168 132.8 167.8 133.6 167.6 134.4C167.3 135.4 167.1 136.3 166.9 137.1C166.7 137.9 166.6 138.4 166.5 138.5C166.2 139.7 165.5 140.9 164.4 141.9C163.1 143.1 161.7 143.9 160.2 144.1C158.5 144.3 156.7 143.9 155 142.7C153.7 141.8 152.8 140.7 152.1 139.3C151.4 138 150.9 136.5 150.7 134.9C150.3 131.7 150.6 128.4 151.8 125C153 121.6 154.5 118.9 156.5 116.8C157.4 115.9 158.4 115.1 159.5 114.5C160.6 113.9 161.8 113.5 163.1 113.3C163.9 113.2 164.8 113.2 165.8 113.3C167 113.4 168.1 113.9 169.1 114.6L169.3 113.7C169.4 113.1 169.6 112.5 169.7 111.9C171.2 105.7 174 99.9 178 94.4C179.8 92.1 182.1 90.1 184.9 88.6C186.1 87.8 187.5 87.3 188.9 87.1C189.2 87.1 189.5 87 189.8 87C193.7 87 196.3 88.6 197.6 91.9C197.9 92.7 198.1 93.5 198.2 94.3C198.3 95.2 198.4 96.1 198.3 97.1C198.2 98 198.2 99 198 99.9C197.3 104.5 195.4 108.8 192.2 112.7C190 115.4 187 117.4 183.3 118.5C182.5 118.8 181.7 118.9 180.9 119.1L180.1 119.2C179.8 119.2 179.6 119.4 179.5 119.8C179 123.4 178.9 127 179.1 130.6C179.1 131.8 179.3 133 179.4 134.2C179.5 135.3 179.8 136.4 180.1 137.5C180.5 139.2 181.2 140.8 182.3 142.3C182.9 143 183.6 143.6 184.6 144C185.2 144.2 185.7 144.3 186.1 144.3C186.6 144.2 187.1 144 187.6 143.5C188.8 142.3 189.7 141.1 190.3 139.7C192.6 135.3 194.5 130.9 196.1 126.3C196.8 124.4 197.5 122.4 198.1 120.5C198.5 119.3 198.9 118 199.3 116.8C199.4 116.5 199.5 116.2 199.7 115.9C199.9 115.5 200.2 115.3 200.6 115.3H201C201.7 115.4 202.1 115.7 202.2 116.2V116.4C202.2 116.8 202.1 117.2 201.9 117.6C199.9 126.6 197.3 134.6 194.3 141.7C193.6 143.5 192.6 145.2 191.3 146.7C189.6 148.3 187.9 149.2 185.9 149.4ZM160.3 137.4C161.2 136.3 161.9 135.1 162.3 133.9C163.1 131.9 163.9 129.9 164.6 127.9C165.1 126.6 165.6 125.2 166.1 123.9C166.2 123.6 166.2 123.3 166.2 123C166.1 122.6 166 122.2 165.6 121.9C165.3 121.6 164.9 121.4 164.5 121.5C164.1 121.6 163.6 121.8 163.1 122.4C162.6 122.9 162.1 123.8 161.5 125C160.2 127.8 159.6 130.7 159.6 133.6C159.6 134.2 159.6 134.9 159.7 135.5C159.8 136 160 136.7 160.3 137.4ZM180.8 115.3L181.2 115.2C183.6 114.5 185.7 113.4 187.5 111.9C189.7 109.8 191.2 107.6 191.9 105.2C192.6 102.8 192.9 100.4 192.8 97.9C192.7 97.6 192.7 97.4 192.7 97.2C192.5 96.5 192.4 95.9 192.2 95.3C192 94.8 191.9 94.3 191.6 93.8C191.4 93.4 191.2 93.2 190.9 93.2C190.7 93.2 190.5 93.3 190.2 93.5C189 94.3 188 95.3 187.3 96.5C183.7 102.3 181.4 108.5 180.4 114.9V115.2C180.4 115.3 180.5 115.4 180.5 115.4C180.6 115.3 180.7 115.3 180.8 115.3Z" fill="#A28946"/>
<path d="M231.3 171.8C229.4 172.1 227.6 171.7 225.9 170.7C223.9 169.5 222.7 167.9 222.2 165.8C222 165 221.8 164.2 221.7 163.5C221.5 162.1 221.5 160.7 221.6 159.3C221.7 157.9 221.9 156.5 222.1 155.1C222.9 149.8 224.5 144.6 227.1 139.6L229.5 134.6C229.7 134.4 229.7 134.1 229.7 133.9L229.6 133.7L225.9 125.3C225.9 125.2 225.8 125.1 225.8 125.1H225.7C225.6 125.9 225.6 126.8 225.6 127.7C225.6 131 225 134.2 224 137.4C223.7 138.2 223.4 139 222.9 139.8C221.1 142.6 218.7 144.2 215.6 144.6C214.2 144.8 212.6 144.7 211 144.3C207.9 143.4 205.5 141.8 203.6 139.6C201.4 137 200 134.1 199.2 131C198.8 129.4 198.5 127.8 198.3 126.3C197.9 123.3 197.8 120.3 198 117.3C198.2 114.9 199 112.7 200.5 110.7C201.1 110 201.7 109.4 202.4 108.9C203.1 108.4 203.9 108.1 204.9 108C205.3 108 205.6 107.9 206 107.9C207.3 107.9 208.4 108.3 209.3 109.1C210.2 109.8 210.7 110.8 210.8 112V112.2C211 113.9 211.1 115.5 211.2 117.2C211.3 118.4 211.4 119.7 211.5 120.9L211.7 122.5C212.2 126 213.2 129.4 214.8 132.7C214.9 133 215.1 133.3 215.3 133.6C215.4 133.6 215.5 133.5 215.6 133.4C215.6 133.3 215.7 133.3 215.7 133.2V133.1C217.5 129.1 218.4 125.1 218.4 121C218.4 120.4 218.4 119.9 218.4 119.3C218.4 117.4 218.4 115.6 218.7 113.8C218.9 111.4 220.3 109.8 222.9 108.8C223.2 108.7 223.6 108.6 223.9 108.6C225 108.4 226.1 108.5 227.2 108.9C229.3 109.6 231.1 110.7 232.6 112.2C234.6 114.1 236.2 116.3 237.5 118.6C237.5 118.6 237.6 118.7 237.6 118.8C237.6 118.9 237.7 119 237.7 119.1C237.7 119.2 237.8 119.2 238 119.3L241.1 114.3C242.1 112.8 243.1 111.4 244.4 109.9C244.7 109.4 245.2 109.1 245.8 109H245.9C246.4 109 246.8 109.1 247.1 109.3C247.4 109.5 247.6 109.8 247.7 110.2C247.7 110.4 247.7 110.7 247.5 111C247.3 111.4 247 111.8 246.8 112.2C246.7 112.4 246.6 112.6 246.4 112.8C244.3 116.4 242.4 120.1 240.6 123.8C240.5 124 240.4 124.3 240.5 124.5L240.6 124.8C242.7 130 244.1 135.2 244.9 140.7C245.1 142 245.2 143.3 245.3 144.6C245.9 150.6 245 156.6 242.6 162.4C241.4 165.4 239.3 168 236.5 170.2C234.5 170.9 232.9 171.6 231.3 171.8ZM230.3 166C230.6 166 231 165.7 231.4 165.3C232.5 164.2 233.2 162.9 233.4 161.5C234.5 156.8 234.7 152.2 234.1 147.7C233.9 146.3 233.7 145 233.3 143.6L232.6 141.1H232.5H232.4C231.6 143.1 230.8 145.1 230.2 147.2C229.5 149.4 228.9 151.7 228.4 153.9C227.9 156.2 227.8 158.4 227.9 160.7L228 161.7C228.2 162.9 228.6 164 229.3 165C229.5 165.8 229.9 166.1 230.3 166Z" fill="#A28946"/>
<path d="M142.6 186.8L142.3 186.9C141.2 187.1 140.1 186.9 139.2 186.4C138.1 185.8 137.1 185.1 136.4 184.2C135.6 183.3 135 182.2 134.6 181.1C134.1 179.9 133.8 178.7 133.5 177.5C133.2 176 133.1 174.6 133 173.1C133 171.6 133 170.3 133.1 169.1V168.9C133.1 168.8 133 168.8 133 168.8H132.8C132.1 169 131.4 169.3 130.6 169.5C129.9 169.7 129.1 169.9 128.4 170H128C127.2 170.1 126.4 170.2 125.6 170.1C124.3 169.8 123.5 169.3 123.4 168.4V168.3C123.3 167.7 123.5 167.2 123.9 166.6C124.3 166.1 124.9 165.8 125.5 165.6C125.9 165.5 126.1 165.6 126.4 165.7C126.6 165.8 126.8 166 126.8 166.2C126.8 166.3 126.8 166.4 126.8 166.6V166.7V166.8V166.9V167C126.8 167 126.9 167 127 167H127.2C127.5 166.9 127.7 166.8 128 166.7C128.5 166.5 128.9 166.4 129.4 166.2C130.6 165.8 131.8 165.4 133 165C133.2 164.9 133.4 164.9 133.6 164.8C133.8 164.8 133.9 164.7 134 164.6C134.1 164.5 134.2 164.4 134.2 164.3C134.4 163.6 134.7 163 135.2 162.4C135.6 161.8 136.2 161.4 137 161.2H137.2C137.9 161.1 138.5 161.1 139 161.4C139.5 161.7 139.9 162.1 140.1 162.7C140.1 162.8 140.1 162.8 140.2 162.9C140.2 162.9 140.3 163 140.4 162.9H140.5C141.7 162.6 142.9 162.3 144 162C144.4 161.9 144.8 161.8 145.2 161.7C146.2 161.5 147.2 161.2 148.1 161.1L148.7 161C150.5 160.7 152.2 160.6 154 160.8C154.5 160.8 154.9 160.9 155.3 161.1C155.9 161.4 156.2 161.7 156.3 162.2C156.3 162.5 156.3 162.7 156.2 163C155.9 163.8 155.3 164.4 154.4 164.7C154.3 164.7 154.2 164.8 154.1 164.8C153.9 164.8 153.7 164.8 153.6 164.8C153.3 164.8 153.1 164.6 153 164.4C153 164.1 153.1 163.9 153.3 163.8L153.4 163.7C153.5 163.7 153.5 163.6 153.6 163.6C153.7 163.6 153.7 163.5 153.7 163.4H153.4C153.2 163.4 152.9 163.4 152.7 163.5C152 163.6 151.3 163.7 150.6 163.9C149.7 164 148.9 164.2 148.1 164.3L147.1 164.5C144.9 165 142.6 165.6 140.5 166.3C140.3 166.3 140.2 166.5 140.2 166.6C140.2 167.1 140.1 167.5 140.1 168C140 169.1 139.9 170.3 139.8 171.5C139.7 172.7 139.7 173.9 139.7 175.1C139.7 176.3 139.8 177.5 140 178.6C140.3 180 140.7 181.2 141.3 182.4C141.5 182.9 141.9 183.4 142.5 183.7C142.7 183.8 142.9 183.9 143.1 183.8C143.2 183.8 143.4 183.7 143.5 183.6C143.9 183.3 144.1 183 144.3 182.6C144.9 181.5 145.3 180.5 145.6 179.3C145.9 178.1 146.2 176.8 146.4 175.6C146.5 175 146.6 174.5 146.7 173.9C146.8 173.6 146.9 173.3 147 173C147.1 172.7 147.2 172.6 147.5 172.5C147.6 172.5 147.6 172.5 147.7 172.5C148 172.5 148.1 172.7 148.2 172.9V173C148.2 173.1 148.2 173.2 148.2 173.3C148.2 174.5 148.2 175.7 148.1 177.1C148 178.5 147.8 179.8 147.5 181.2C147.2 182.5 146.7 183.7 146 184.8C145.6 185.3 145.2 185.7 144.7 186.1C143.8 186.4 143.2 186.7 142.6 186.8Z" fill="#A28946"/>
<path d="M153.6 183.6C152.4 183.8 151.4 183.6 150.5 183C149.2 182.2 148.2 181.2 147.5 180C146.7 178.7 146.2 177.4 146 176C145.8 175.1 145.8 174.2 145.8 173.3C145.9 172.4 146.1 171.5 146.4 170.6C146.7 169.9 147.1 169.3 147.7 168.8C148.1 168.5 148.5 168.3 149 168.2C149.5 168.1 150 168.1 150.5 168.3C151 168.5 151.3 168.8 151.6 169.2C151.7 169.5 151.8 169.7 151.9 170C152 170.3 152 170.6 151.9 171C151.9 171.6 151.8 172.2 151.8 172.9C151.7 173.9 151.7 174.9 151.6 175.9C151.6 176.7 151.6 177.4 151.8 178.2C151.9 178.9 152.2 179.7 152.5 180.4C152.6 180.7 152.8 180.9 153.1 181.1C153.3 181.2 153.5 181.3 153.6 181.2C153.7 181.2 153.9 181.1 154 181C154.8 180.5 155.2 179.8 155.4 179C155.8 177.4 156.2 175.8 156.5 174.1C156.6 173.5 156.7 172.8 156.8 172.2C156.8 172 156.9 171.8 156.9 171.6L157 171.3C157.1 171 157.3 170.9 157.5 170.8C157.6 170.8 157.6 170.8 157.7 170.8C158 170.8 158.2 171 158.3 171.3C158.3 172 158.3 172.7 158.3 173.4C158.3 174 158.2 174.6 158.2 175.2C158.1 176.5 158 177.8 157.8 179.1V179.2C157.7 179.8 157.5 180.4 157.3 181C157 181.7 156.5 182.3 155.9 182.7C155.3 183.2 154.5 183.5 153.6 183.6ZM149.1 166.5C148.6 166.6 148.1 166.5 147.7 166.2C147.3 165.8 147 165.4 146.9 164.9C146.7 163.9 147 162.9 147.6 162C147.7 161.8 147.9 161.6 148.1 161.5C148.3 161.4 148.5 161.3 148.8 161.2H148.9C149.3 161.1 149.6 161.2 149.9 161.4C150.2 161.6 150.4 161.9 150.6 162.2C150.8 162.5 150.9 162.8 151 163.1V163.3C151.1 163.8 151 164.4 150.9 165C150.8 165.4 150.6 165.8 150.3 166.1C149.8 166.2 149.5 166.4 149.1 166.5Z" fill="#A28946"/>
<path d="M156.8 173C156.2 169.2 156.8 165.6 158.7 161.9C159.3 160.7 160.1 159.7 161.2 158.9C161.6 158.6 162 158.4 162.4 158.2C162.8 158 163.3 157.8 163.7 157.8C163.9 157.8 164.1 157.7 164.3 157.7C166 157.6 167.1 158.3 167.7 159.6C167.8 159.9 167.9 160.2 168 160.5C168.1 161 168.1 161.4 168.1 161.9C168.1 162.4 168 162.8 167.9 163.3C167.6 165.2 166.9 167.1 165.7 168.8C164.9 170.1 163.6 171.1 162 171.8C162 171.8 162 171.8 161.9 171.8C161.8 171.8 161.8 171.8 161.7 171.9C161.6 171.9 161.5 172 161.5 172C161.5 172 161.4 172.1 161.3 172.1C161.3 172.1 161.3 172.2 161.3 172.3C161.3 172.4 161.3 172.4 161.3 172.5V172.7C161.3 173 161.4 173.3 161.5 173.6C161.7 174.4 161.9 175.2 162.1 176C162.4 176.8 162.8 177.5 163.3 178.2C163.5 178.5 163.8 178.8 164.1 179C164.6 179.4 165.1 179.5 165.6 179.4C166 179.3 166.3 179.2 166.6 178.9C167.1 178.4 167.6 177.8 167.9 177.2C168.7 175.9 169.3 174.6 169.7 173.3C170 172.4 170.3 171.5 170.6 170.7C170.8 170 171.1 169.3 171.4 168.6C171.4 168.5 171.5 168.4 171.6 168.2C171.7 168.1 171.8 168 171.9 168C171.9 168 172 168 172.1 168C172.2 168 172.3 168.1 172.4 168.1C172.5 168.1 172.5 168.2 172.5 168.3C172.5 168.4 172.5 168.5 172.5 168.6C172.4 168.9 172.4 169.1 172.3 169.5C172.1 170.6 171.8 172 171.5 173.5C171.2 175 170.7 176.4 170.1 177.8C169.5 179.2 168.8 180.2 167.9 180.9C167.2 181.4 166.4 181.8 165.6 181.9C164.7 182.1 163.7 182 162.7 181.6C161.9 181.3 161.2 180.9 160.6 180.4C160 179.9 159.5 179.3 159.1 178.7C158 177.2 157.2 175.4 156.9 173.4L156.8 173ZM161.3 169.7C161.3 169.7 161.4 169.7 161.4 169.6C161.4 169.5 161.4 169.6 161.5 169.6C161.6 169.6 161.6 169.5 161.7 169.5C162.3 169 162.8 168.5 163.1 167.8C164 166.1 164.5 164.3 164.6 162.4C164.6 162.1 164.6 161.9 164.6 161.6C164.6 161.4 164.5 161.2 164.4 161C163.3 162.3 162.5 163.7 162.1 165.2C161.6 166.6 161.3 168.1 161.3 169.7Z" fill="#A28946"/>
<path d="M177.5 178.2H177.4C176.8 178.3 176.1 178.3 175.6 178.2C175 178.1 174.5 177.8 174 177.5C172.2 176.3 171.1 174.7 170.7 172.8C170.6 172.4 170.6 171.9 170.6 171.5C170.6 169.5 171.2 167.6 172.4 165.8C173.1 164.7 174.2 163.9 175.6 163.4C175.9 163.3 176.1 163.2 176.4 163.2C177.9 162.9 178.9 163.4 179.6 164.7C179.7 164.9 179.7 165 179.8 165.2C179.9 166 179.7 166.9 179.2 167.9C178.6 168.9 177.7 169.5 176.5 169.9L176.2 170C175.9 170.1 175.6 170.1 175.3 170C175.2 170 175.2 170 175.1 170C175.1 170 175.1 170 175 170V170.1C174.9 170.9 174.9 171.7 175 172.5L175.1 173C175.2 173.7 175.5 174.3 175.8 174.9C176.1 175.3 176.4 175.6 176.8 175.8C177 175.9 177.3 176 177.5 176C177.7 176 177.8 175.9 178 175.8C178.7 175.3 179.3 174.7 179.7 174C181.1 171.7 182.3 169.3 183.3 166.9C183.3 166.8 183.4 166.7 183.5 166.6C183.6 166.5 183.7 166.4 183.8 166.4H183.9C184.1 166.4 184.2 166.4 184.3 166.5C184.4 166.6 184.5 166.7 184.5 166.8V167C184.4 167.5 184.3 168.1 184.1 168.6C183.3 170.6 182.5 172.6 181.5 174.6L181.4 174.7C181.1 175.3 180.8 175.9 180.4 176.4C179.7 177.3 178.7 177.9 177.5 178.2ZM175.5 167.9C175.8 167.7 176.1 167.4 176.2 167.1C176.4 166.8 176.5 166.5 176.5 166.1C176.1 166.7 175.7 167.3 175.5 167.9Z" fill="#A28946"/>
<path d="M189.4 183.7C188 184 186.9 183.7 185.8 183C185.4 182.7 185.1 182.4 184.9 182C184.7 181.6 184.5 181.2 184.5 180.8C184.5 180.5 184.4 180.3 184.4 180C184.4 179.2 184.6 178.4 184.8 177.7C185.1 176.9 185.4 176.2 185.8 175.5C186 175.1 186.3 174.6 186.6 174.2L186.8 173.9C186.9 173.8 186.9 173.7 186.9 173.7C186.9 173.6 186.9 173.6 186.8 173.5C186 172.6 185.2 171.7 184.5 170.9C184 170.3 183.6 169.7 183.3 169.1C183 168.5 182.7 167.8 182.6 167.1C182.6 166.9 182.5 166.7 182.5 166.5C182.4 164.7 182.8 163 184 161.5C184.5 160.8 185.1 160.3 185.8 159.9C186.5 159.5 187.3 159.2 188.2 159.1C189.3 158.9 190.2 159.1 190.9 159.5C191.6 159.9 192.1 160.5 192.2 161.3C192.3 161.6 192.3 161.9 192.2 162.2C192.1 163 191.7 163.7 191.1 164.4C190.9 164.6 190.8 164.7 190.5 164.9C190.3 165 190.1 165.1 190 165.1C189.7 165.2 189.4 165.1 189.2 165C189 164.9 188.8 164.7 188.7 164.4L188.6 164.2V163.9V163.7V163.6C188.6 163.4 188.5 163.3 188.4 163.1C187.9 163.8 187.6 164.5 187.7 165.2L187.8 165.7C187.9 166.2 188 166.6 188.3 167C188.6 167.4 188.8 167.8 189.1 168.2L189.8 169C190 169.2 190.1 169.3 190.3 169.5C190.4 169.6 190.4 169.6 190.5 169.6C190.6 169.6 190.6 169.5 190.7 169.4C192 167.9 193.3 166.5 194.7 165.1C195.2 164.6 195.7 164.2 196.2 163.7C196.4 163.6 196.6 163.5 196.7 163.4C196.9 163.4 197 163.4 197.2 163.5C197.3 163.6 197.4 163.7 197.4 163.8C197.4 163.9 197.4 164.1 197.2 164.3C195.4 166.4 193.7 168.5 192 170.7C191.9 170.8 191.9 170.9 191.9 171C191.9 171.1 191.9 171.1 192 171.2C193.2 172.6 194 174.2 194.3 175.9L194.4 176.2C194.7 178.3 194.1 180.3 192.4 182C192 182.4 191.6 182.7 191.1 183C190.3 183.4 189.9 183.6 189.4 183.7ZM188.4 180.9C188.5 180.9 188.6 180.8 188.6 180.8C189 180.4 189.2 179.9 189.3 179.3C189.3 178.9 189.3 178.4 189.2 178C189.1 177.3 188.8 176.7 188.5 176.1C188 177 187.7 178 187.5 178.9C187.4 179.3 187.4 179.7 187.5 180.1V180.2C187.6 180.5 187.8 180.7 188.1 180.9C188.3 180.9 188.4 180.9 188.4 180.9Z" fill="#A28946"/>
<path d="M202.2 188.1C199.8 193.4 209.7 196.7 212.4 197.2C219.5 198.3 226.1 195.5 228.4 188.8C229.2 186.5 229.8 183.1 228.4 179.7C227.2 176.7 224 174 222.1 174.9C220.3 175.8 220.9 179.1 220.3 181.1C219.5 184.2 217.1 186.2 214.5 187.1C211.5 188 203.6 185 202.2 188.1Z" fill="#FDB7A2"/>
</g>
<defs>
<clipPath id="clip0_116_179">
<rect width="277" height="372" fill="white"/>
</clipPath>
</defs>
</svg>
