<svg width="219" height="100" viewBox="0 0 219 100" fill="none" xmlns="http://www.w3.org/2000/svg">
<path d="M23.2831 79.1C19.9831 79.5 16.7831 79 13.5831 77.6C8.9831 75.1 5.68311 71.8 3.68311 67.7C2.08311 64.8 0.783101 60.6 0.0831012 55C-0.216899 50 0.283098 44.8 1.7831 39.4C3.1831 34 5.9831 28.6 10.0831 23.3C11.9831 20.8 14.2831 18.7 17.0831 16.9C19.1831 15.5 21.5831 14.5 24.2831 14L24.9831 13.9C27.6831 13.5 29.9831 13.9 32.0831 14.9C34.1831 16 35.4831 17.5 35.9831 19.6L36.2831 21.1C36.5831 23.5 36.2831 25.8 35.3831 28C34.4831 30.2 32.8831 32.2 30.4831 34.1C29.9831 34.5 29.4831 34.9 28.7831 35.2C28.4831 35.3 28.1831 35.4 27.8831 35.5C27.4831 35.6 27.0831 35.5 26.6831 35.3C26.3831 35.1 26.1831 34.8 26.0831 34.5C26.0831 34.2 26.0831 33.9 26.2831 33.6C27.4831 31.3 28.1831 29 28.5831 26.6C28.6831 25.9 28.6831 25.3 28.5831 24.7C28.3831 23.6 27.8831 22.5 26.7831 21.6C26.3831 21.2 26.0831 21.1 25.6831 21.1C25.4831 21.1 25.1831 21.3 24.7831 21.5C22.5831 23 20.7831 24.7 19.3831 26.8C15.9831 31.9 13.7831 37.2 12.7831 42.8C11.6831 48 11.5831 53.1 12.2831 58.2C12.3831 59 12.4831 59.9 12.6831 60.7C13.2831 63.6 14.3831 66.4 16.1831 69C16.8831 70 17.8831 70.9 18.9831 71.7C20.5831 72.6 22.1831 73 23.9831 72.7C25.0831 72.6 25.9831 72.2 26.9831 71.6C30.1831 69.6 32.6831 67.1 34.2831 64.1C36.2831 60.4 38.0831 56.6 39.5831 52.7L40.5831 50.2L41.7831 47.1C42.1831 46.2 42.6831 45.7 43.1831 45.7C43.5831 45.7 44.0831 45.8 44.7831 46.2C45.4831 46.6 45.8831 46.9 45.8831 47.2C45.8831 47.3 45.8831 47.4 45.8831 47.5C45.6831 48.3 45.4831 49.1 45.1831 49.9C43.1831 56.1 40.6831 62 37.6831 67.8C36.2831 70.5 34.3831 73 31.7831 75.2C29.2831 77.4 26.3831 78.7 23.2831 79.1Z" fill="currentColor"/>
<path d="M70.3831 71.6C69.2831 71.7 68.1831 71.7 67.0831 71.3C65.9831 71 65.0831 70.4 64.2831 69.5C62.4831 67.5 61.1831 65.4 60.4831 63C59.7831 60.9 59.2831 58.8 58.9831 56.7C58.5831 54 58.5831 51.2 58.7831 48.4V48.1C58.7831 48 58.6831 47.9 58.5831 47.8C58.4831 47.9 58.3831 48.1 58.2831 48.2C58.1831 48.4 57.9831 48.6 57.8831 48.9L53.9831 55.9C53.3831 56.9 52.7831 57.8 51.8831 58.6C50.8831 59.5 49.7831 60 48.5831 60.2C47.2831 60.4 45.8831 60.1 44.5831 59.2C42.4831 57.7 41.2831 55.7 40.7831 53.5L40.4831 51.8C40.0831 49 40.3831 46.3 41.2831 43.7C42.1831 41.1 43.8831 38.7 46.1831 36.5C46.9831 35.7 47.8831 35.1 48.7831 34.6C49.7831 34.1 50.7831 33.7 51.8831 33.6C52.4831 33.5 53.1831 33.5 53.7831 33.5C57.1831 33.6 59.3831 35 60.5831 37.7C60.5831 37.8 60.6831 37.9 60.6831 38C60.7831 38.1 60.7831 38.2 60.8831 38.4C61.2831 38 61.5831 37.8 61.8831 37.5C62.6831 36.9 63.4831 36.6 64.2831 36.5C65.0831 36.4 65.7831 36.5 66.4831 36.8C67.1831 37.1 67.7831 37.6 68.1831 38.4C68.5831 39.2 68.8831 40 68.9831 40.8C69.0831 41.4 69.0831 42.1 69.0831 42.7L68.8831 46.9C68.6831 48.9 68.5831 51 68.5831 53C68.4831 55.3 68.5831 57.6 68.8831 59.8C69.1831 61.8 69.7831 63.8 70.6831 65.7L70.7831 65.8C70.9831 66.3 71.2831 66.8 71.7831 67.2C72.2831 66.4 72.5831 65.5 72.7831 64.7C72.7831 64.6 72.7831 64.6 72.8831 64.5C73.5831 61.1 74.3831 57.5 75.1831 53.6C75.9831 49.7 76.7831 46.1 77.4831 42.7L77.5831 42.3C77.6831 41.7 78.3831 41.3 79.5831 41.2H79.8831C80.5831 41.3 80.9831 41.6 81.0831 42.1V42.4C81.0831 42.9 80.9831 43.5 80.8831 44.3C80.7831 45.1 80.6831 45.9 80.5831 46.7C80.4831 47.5 80.3831 48.2 80.3831 48.6C79.3831 54.6 78.3831 60.6 77.1831 66.5C76.6831 68.6 75.7831 70 74.5831 70.6C72.9831 71 71.7831 71.4 70.3831 71.6ZM49.0831 54.4C49.2831 54.2 49.3831 54 49.5831 53.8C49.8831 53.5 50.0831 53.2 50.2831 52.9C50.9831 51.8 51.7831 50.7 52.4831 49.5C53.8831 47.2 55.3831 45 57.1831 42.9C57.6831 42.3 57.8831 41.7 57.7831 41.1C57.6831 40.6 57.4831 40.2 57.1831 39.8C56.5831 39 55.7831 38.6 54.9831 38.8C54.4831 38.9 53.9831 39.1 53.4831 39.5C52.4831 40.4 51.6831 41.4 51.1831 42.5C49.9831 44.8 49.3831 47.3 49.1831 49.7C49.0831 50.4 49.0831 51 48.9831 51.7C48.9831 52.4 48.9831 53.1 49.0831 53.8V54.4Z" fill="currentColor"/>
<path d="M115.883 70.7C113.983 71 112.183 70.8 110.383 70.1C108.783 69.4 107.483 68.5 106.383 67.4C105.283 66.3 104.383 65.1 103.583 63.7C102.283 61.3 101.283 58.9 100.783 56.3C100.483 55.2 100.283 54.1 100.183 53C99.8831 50.9 99.6831 48.8 99.6831 46.7C99.5831 46 99.5831 45.3 99.4831 44.6C99.3831 43.6 99.2831 42.7 99.1831 41.7C99.0831 40.6 98.7831 39.6 98.5831 38.5C97.3831 39.6 96.3831 40.8 95.4831 42C92.4831 46.2 90.7831 50.8 90.3831 55.6L89.5831 62.6C89.4831 63.4 89.2831 64.3 88.8831 65.1C88.4831 66 87.8831 66.6 87.0831 67.2C86.2831 67.7 85.4831 68 84.5831 68.2C83.5831 68.3 82.4831 68.2 81.3831 67.8C79.5831 67.2 78.1831 65.9 77.0831 63.8C75.9831 61.7 75.2831 59.2 74.8831 56.4C74.5831 54.1 74.4831 51.7 74.5831 49.2C74.6831 46.7 75.0831 44.4 75.6831 42.3C76.2831 40.2 77.0831 38.4 78.1831 37C79.2831 35.6 80.5831 34.8 82.0831 34.6C82.4831 34.5 82.8831 34.5 83.2831 34.6C85.4831 34.9 86.8831 36 87.4831 37.7C87.5831 38.1 87.7831 38.6 87.7831 39.1L87.9831 40.4C88.2831 40 88.5831 39.6 88.7831 39.3C89.0831 38.8 89.4831 38.3 89.8831 37.8C91.6831 35.3 93.9831 33.3 96.7831 31.7C98.2831 30.9 99.7831 30.4 101.183 30.2C102.983 29.9 104.683 30.2 106.183 31.1C107.683 31.9 108.883 33.3 109.683 35.1C110.183 36.4 110.583 37.7 110.783 39.1C110.883 39.9 110.983 40.7 110.983 41.6L111.083 43.9C111.183 45.5 111.283 47 111.383 48.6V48.7C111.483 50.2 111.583 51.6 111.783 53.1L111.983 54.4C112.283 55.9 112.583 57.4 113.083 58.8C113.583 60.2 114.283 61.6 115.183 62.9C115.483 63.4 115.883 63.9 116.483 64.3C116.883 64.6 117.283 64.6 117.683 64.6C117.883 64.6 118.183 64.5 118.383 64.4C119.183 63.8 119.683 63.2 120.083 62.5C121.583 59.8 122.583 57.1 123.083 54.2C123.983 49.4 124.583 44.5 124.683 39.6L124.783 38.7C124.883 37.6 124.983 36.5 124.783 35.5C124.783 35.2 124.783 34.9 124.883 34.7C124.983 34.5 125.283 34.3 125.683 34.2H125.883C126.183 34.2 126.483 34.2 126.683 34.4C126.883 34.6 127.083 34.8 127.183 35C127.383 35.6 127.583 36.3 127.683 36.9L127.783 38.1C127.983 41.9 127.983 45.8 127.783 49.6C127.783 50.3 127.783 51 127.683 51.7C127.683 54 127.483 56.2 127.183 58.5C126.783 61.3 125.783 63.9 124.183 66.4C123.283 67.6 122.083 68.7 120.583 69.5C119.183 70 117.583 70.5 115.883 70.7Z" fill="currentColor"/>
<path d="M156.983 62.4C156.283 62.5 155.583 62.5 154.783 62.4C151.883 62.1 149.583 61 147.683 59.2C144.683 56.2 142.583 52.9 141.383 49.1C140.783 47.1 140.283 45 140.083 42.9C140.083 42.7 139.983 42.6 139.983 42.6C139.983 42.6 139.883 42.9 139.783 43.3C139.683 43.8 139.483 44.4 139.283 45.1C139.083 45.8 138.883 46.6 138.683 47.4C138.383 48.4 138.183 49.3 137.983 50.1C137.783 50.9 137.683 51.4 137.583 51.5C137.283 52.7 136.583 53.9 135.483 54.9C134.183 56.1 132.783 56.9 131.283 57.1C129.583 57.3 127.783 56.9 126.083 55.7C124.783 54.8 123.883 53.7 123.183 52.3C122.483 51 121.983 49.5 121.783 47.9C121.383 44.7 121.683 41.4 122.883 38C124.083 34.6 125.583 31.9 127.583 29.8C128.483 28.9 129.483 28.1 130.583 27.5C131.683 26.9 132.883 26.5 134.183 26.3C134.983 26.2 135.883 26.2 136.883 26.3C138.083 26.4 139.183 26.9 140.183 27.6L140.383 26.7C140.483 26.1 140.683 25.5 140.783 24.9C142.283 18.7 145.083 12.9 149.083 7.39999C150.883 5.09999 153.183 3.10001 155.983 1.60001C157.183 0.800006 158.583 0.300006 159.983 0.100006C160.283 0.100006 160.583 0 160.883 0C164.783 0 167.383 1.59999 168.683 4.89999C168.983 5.69999 169.183 6.5 169.283 7.3C169.383 8.2 169.483 9.10001 169.383 10.1C169.283 11 169.283 12 169.083 12.9C168.383 17.5 166.483 21.8 163.283 25.7C161.083 28.4 158.083 30.4 154.383 31.5C153.583 31.8 152.783 31.9 151.983 32.1L151.183 32.2C150.883 32.2 150.683 32.4 150.583 32.8C150.083 36.4 149.983 40 150.183 43.6C150.183 44.8 150.383 46 150.483 47.2C150.583 48.3 150.883 49.4 151.183 50.5C151.583 52.2 152.283 53.8 153.383 55.3C153.983 56 154.683 56.6 155.683 57C156.283 57.2 156.783 57.3 157.183 57.3C157.683 57.2 158.183 57 158.683 56.5C159.883 55.3 160.783 54.1 161.383 52.7C163.683 48.3 165.583 43.9 167.183 39.3C167.883 37.4 168.583 35.4 169.183 33.5C169.583 32.3 169.983 31 170.383 29.8C170.483 29.5 170.583 29.2 170.783 28.9C170.983 28.5 171.283 28.3 171.683 28.3H172.083C172.783 28.4 173.183 28.7 173.283 29.2V29.4C173.283 29.8 173.183 30.2 172.983 30.6C170.983 39.6 168.383 47.6 165.383 54.7C164.683 56.5 163.683 58.2 162.383 59.7C160.683 61.3 158.983 62.2 156.983 62.4ZM131.383 50.4C132.283 49.3 132.983 48.1 133.383 46.9C134.183 44.9 134.983 42.9 135.683 40.9C136.183 39.6 136.683 38.2 137.183 36.9C137.283 36.6 137.283 36.3 137.283 36C137.183 35.6 137.083 35.2 136.683 34.9C136.383 34.6 135.983 34.4 135.583 34.5C135.183 34.6 134.683 34.8 134.183 35.4C133.683 35.9 133.183 36.8 132.583 38C131.283 40.8 130.683 43.7 130.683 46.6C130.683 47.2 130.683 47.9 130.783 48.5C130.883 49 131.083 49.7 131.383 50.4ZM151.883 28.3L152.283 28.2C154.683 27.5 156.783 26.4 158.583 24.9C160.783 22.8 162.283 20.6 162.983 18.2C163.683 15.8 163.983 13.4 163.883 10.9C163.783 10.6 163.783 10.4 163.783 10.2C163.583 9.5 163.483 8.9 163.283 8.3C163.083 7.8 162.983 7.3 162.683 6.8C162.483 6.4 162.283 6.2 161.983 6.2C161.783 6.2 161.583 6.3 161.283 6.5C160.083 7.3 159.083 8.3 158.383 9.5C154.783 15.3 152.483 21.5 151.483 27.9V28.2C151.483 28.3 151.583 28.4 151.583 28.4C151.683 28.3 151.783 28.3 151.883 28.3Z" fill="currentColor"/>
<path d="M202.383 84.8C200.483 85.1 198.683 84.7 196.983 83.7C194.983 82.5 193.783 80.9 193.283 78.8C193.083 78 192.883 77.2 192.783 76.5C192.583 75.1 192.583 73.7 192.683 72.3C192.783 70.9 192.983 69.5 193.183 68.1C193.983 62.8 195.583 57.6 198.183 52.6L200.583 47.6C200.783 47.4 200.783 47.1 200.783 46.9L200.683 46.7L196.983 38.3C196.983 38.2 196.883 38.1 196.883 38.1H196.783C196.683 38.9 196.683 39.8 196.683 40.7C196.683 44 196.083 47.2 195.083 50.4C194.783 51.2 194.483 52 193.983 52.8C192.183 55.6 189.783 57.2 186.683 57.6C185.283 57.8 183.683 57.7 182.083 57.3C178.983 56.4 176.583 54.8 174.683 52.6C172.483 50 171.083 47.1 170.283 44C169.883 42.4 169.583 40.8 169.383 39.3C168.983 36.3 168.883 33.3 169.083 30.3C169.283 27.9 170.083 25.7 171.583 23.7C172.183 23 172.783 22.4 173.483 21.9C174.183 21.4 174.983 21.1 175.983 21C176.383 21 176.683 20.9 177.083 20.9C178.383 20.9 179.483 21.3 180.383 22.1C181.283 22.8 181.783 23.8 181.883 25V25.2C182.083 26.9 182.183 28.5 182.283 30.2C182.383 31.4 182.483 32.7 182.583 33.9L182.783 35.5C183.283 39 184.283 42.4 185.883 45.7C185.983 46 186.183 46.3 186.383 46.6C186.483 46.6 186.583 46.5 186.683 46.4C186.683 46.3 186.783 46.3 186.783 46.2V46.1C188.583 42.1 189.483 38.1 189.483 34C189.483 33.4 189.483 32.9 189.483 32.3C189.483 30.4 189.483 28.6 189.783 26.8C189.983 24.4 191.383 22.8 193.983 21.8C194.283 21.7 194.683 21.6 194.983 21.6C196.083 21.4 197.183 21.5 198.283 21.9C200.383 22.6 202.183 23.7 203.683 25.2C205.683 27.1 207.283 29.3 208.583 31.6C208.583 31.6 208.683 31.7 208.683 31.8C208.683 31.9 208.783 32 208.783 32.1C208.783 32.2 208.883 32.2 209.083 32.3L212.183 27.3C213.183 25.8 214.183 24.4 215.483 22.9C215.783 22.4 216.283 22.1 216.883 22H216.983C217.483 22 217.883 22.1 218.183 22.3C218.483 22.5 218.683 22.8 218.783 23.2C218.783 23.4 218.783 23.7 218.583 24C218.383 24.4 218.083 24.8 217.883 25.2C217.783 25.4 217.683 25.6 217.483 25.8C215.383 29.4 213.483 33.1 211.683 36.8C211.583 37 211.483 37.3 211.583 37.5L211.683 37.8C213.783 43 215.183 48.2 215.983 53.7C216.183 55 216.283 56.3 216.383 57.6C216.983 63.6 216.083 69.6 213.683 75.4C212.483 78.4 210.383 81 207.583 83.2C205.583 83.9 203.983 84.6 202.383 84.8ZM201.383 79C201.683 79 202.083 78.7 202.483 78.3C203.583 77.2 204.283 75.9 204.483 74.5C205.583 69.8 205.783 65.2 205.183 60.7C204.983 59.3 204.783 58 204.383 56.6L203.683 54.1H203.483C202.683 56.1 201.883 58.1 201.283 60.2C200.583 62.4 199.983 64.7 199.483 66.9C198.983 69.2 198.883 71.4 198.983 73.7L199.083 74.7C199.283 75.9 199.683 77 200.383 78C200.583 78.8 200.983 79.1 201.383 79Z" fill="currentColor"/>
<path d="M113.683 99.8L113.383 99.9C112.283 100.1 111.183 99.9 110.283 99.4C109.183 98.8 108.183 98.1 107.483 97.2C106.683 96.3 106.083 95.2 105.683 94.1C105.183 92.9 104.883 91.7 104.583 90.5C104.283 89 104.183 87.6 104.083 86.1C104.083 84.6 104.083 83.3 104.183 82.1V81.9C104.183 81.8 104.083 81.8 104.083 81.8H103.883C103.183 82 102.483 82.3 101.683 82.5C100.983 82.7 100.183 82.9 99.4831 83H99.0831C98.2831 83.1 97.4831 83.2 96.6831 83.1C95.3831 82.8 94.5831 82.3 94.4831 81.4V81.3C94.3831 80.7 94.5831 80.2 94.9831 79.6C95.3831 79.1 95.9831 78.8 96.5831 78.6C96.9831 78.5 97.1831 78.6 97.4831 78.7C97.6831 78.8 97.8831 79 97.8831 79.2C97.8831 79.3 97.8831 79.4 97.8831 79.6V80C97.8831 80 97.9831 80 98.0831 80H98.2831C98.5831 79.9 98.7831 79.8 99.0831 79.7C99.5831 79.5 99.9831 79.4 100.483 79.2C101.683 78.8 102.883 78.4 104.083 78C104.283 77.9 104.483 77.9 104.683 77.8C104.883 77.8 104.983 77.7 105.083 77.6C105.183 77.5 105.283 77.4 105.283 77.3C105.483 76.6 105.783 76 106.283 75.4C106.683 74.8 107.283 74.4 108.083 74.2H108.283C108.983 74.1 109.583 74.1 110.083 74.4C110.583 74.7 110.983 75.1 111.183 75.7C111.183 75.8 111.183 75.8 111.283 75.9C111.283 75.9 111.383 76 111.483 75.9H111.583C112.783 75.6 113.983 75.3 115.083 75C115.483 74.9 115.883 74.8 116.283 74.7C117.283 74.5 118.283 74.2 119.183 74.1L119.783 74C121.583 73.7 123.283 73.6 125.083 73.8C125.583 73.8 125.983 73.9 126.383 74.1C126.983 74.4 127.283 74.7 127.383 75.2C127.383 75.5 127.383 75.7 127.283 76C126.983 76.8 126.383 77.4 125.483 77.7C125.383 77.7 125.283 77.8 125.183 77.8C124.983 77.8 124.783 77.8 124.683 77.8C124.383 77.8 124.183 77.6 124.083 77.4C124.083 77.1 124.183 76.9 124.383 76.8L124.483 76.7C124.583 76.7 124.583 76.6 124.683 76.6C124.783 76.6 124.783 76.5 124.783 76.4H124.483C124.283 76.4 123.983 76.4 123.783 76.5C123.083 76.6 122.383 76.7 121.683 76.9C120.783 77 119.983 77.2 119.183 77.3L118.183 77.5C115.983 78 113.683 78.6 111.583 79.3C111.383 79.3 111.283 79.5 111.283 79.6C111.283 80.1 111.183 80.5 111.183 81C111.083 82.1 110.983 83.3 110.883 84.5C110.783 85.7 110.783 86.9 110.783 88.1C110.783 89.3 110.883 90.5 111.083 91.6C111.383 93 111.783 94.2 112.383 95.4C112.583 95.9 112.983 96.4 113.583 96.7C113.783 96.8 113.983 96.9 114.183 96.8C114.283 96.8 114.483 96.7 114.583 96.6C114.983 96.3 115.183 96 115.383 95.6C115.983 94.5 116.383 93.5 116.683 92.3C116.983 91.1 117.283 89.8 117.483 88.6C117.583 88 117.683 87.5 117.783 86.9C117.883 86.6 117.983 86.3 118.083 86C118.183 85.7 118.283 85.6 118.583 85.5C118.683 85.5 118.683 85.5 118.783 85.5C119.083 85.5 119.183 85.7 119.283 85.9V86C119.283 86.1 119.283 86.2 119.283 86.3C119.283 87.5 119.283 88.7 119.183 90.1C119.083 91.5 118.883 92.8 118.583 94.2C118.283 95.5 117.783 96.7 117.083 97.8C116.683 98.3 116.283 98.7 115.783 99.1C114.883 99.4 114.283 99.7 113.683 99.8Z" fill="currentColor"/>
<path d="M124.683 96.6C123.483 96.8 122.483 96.6 121.583 96C120.283 95.2 119.283 94.2 118.583 93C117.783 91.7 117.283 90.4 117.083 89C116.883 88.1 116.883 87.1999 116.883 86.2999C116.983 85.3999 117.183 84.5 117.483 83.6C117.783 82.9 118.183 82.2999 118.783 81.7999C119.183 81.4999 119.583 81.3 120.083 81.2C120.583 81.1 121.083 81.0999 121.583 81.2999C122.083 81.4999 122.383 81.8 122.683 82.2C122.783 82.5 122.883 82.7 122.983 83C123.083 83.3 123.083 83.6 122.983 84C122.983 84.6 122.883 85.1999 122.883 85.8999C122.783 86.8999 122.783 87.8999 122.683 88.8999C122.683 89.6999 122.683 90.4 122.883 91.2C122.983 91.9 123.283 92.6999 123.583 93.3999C123.683 93.6999 123.883 93.9 124.183 94.1C124.383 94.2 124.583 94.3 124.683 94.2C124.783 94.2 124.983 94.1 125.083 94C125.883 93.5 126.283 92.8 126.483 92C126.883 90.4 127.283 88.8 127.583 87.1C127.683 86.5 127.783 85.8 127.883 85.2C127.883 85 127.983 84.8 127.983 84.6L128.083 84.2999C128.183 83.9999 128.383 83.8999 128.583 83.7999C128.683 83.7999 128.683 83.7999 128.783 83.7999C129.083 83.7999 129.283 83.9999 129.383 84.2999C129.383 84.9999 129.383 85.6999 129.383 86.3999C129.383 86.9999 129.283 87.6 129.283 88.2C129.183 89.5 129.083 90.8 128.883 92.1V92.2C128.783 92.8 128.583 93.4 128.383 94C128.083 94.7 127.583 95.3 126.983 95.7C126.383 96.2 125.583 96.5 124.683 96.6ZM120.183 79.5C119.683 79.6 119.183 79.5 118.783 79.2C118.383 78.8 118.083 78.3999 117.983 77.8999C117.783 76.8999 118.083 75.9 118.683 75C118.783 74.8 118.983 74.6 119.183 74.5C119.383 74.4 119.583 74.3 119.883 74.2H119.983C120.383 74.1 120.683 74.1999 120.983 74.3999C121.283 74.5999 121.483 74.9 121.683 75.2C121.883 75.5 121.983 75.8 122.083 76.1V76.2999C122.183 76.7999 122.083 77.4 121.983 78C121.883 78.4 121.683 78.8 121.383 79.1C120.883 79.2 120.583 79.4 120.183 79.5Z" fill="currentColor"/>
<path d="M127.883 86C127.283 82.2 127.883 78.6 129.783 74.9C130.383 73.7 131.183 72.7 132.283 71.9C132.683 71.6 133.083 71.4 133.483 71.2C133.883 71 134.383 70.7999 134.783 70.7999C134.983 70.7999 135.183 70.7 135.383 70.7C137.083 70.6 138.183 71.3 138.783 72.6C138.883 72.9 138.983 73.2 139.083 73.5C139.183 74 139.183 74.4 139.183 74.9C139.183 75.4 139.083 75.7999 138.983 76.2999C138.683 78.1999 137.983 80.0999 136.783 81.7999C135.983 83.0999 134.683 84.0999 133.083 84.7999C133.083 84.7999 133.083 84.7999 132.983 84.7999C132.883 84.7999 132.883 84.8 132.783 84.9C132.683 84.9 132.583 85 132.583 85C132.583 85 132.483 85.1 132.383 85.1C132.383 85.1 132.383 85.1999 132.383 85.2999C132.383 85.3999 132.383 85.4 132.383 85.5V85.7C132.383 86 132.483 86.3 132.583 86.6C132.783 87.4 132.983 88.2 133.183 89C133.483 89.8 133.883 90.5 134.383 91.2C134.583 91.5 134.883 91.8 135.183 92C135.683 92.4 136.183 92.5 136.683 92.4C137.083 92.3 137.383 92.2 137.683 91.9C138.183 91.4 138.683 90.8 138.983 90.2C139.783 88.9 140.383 87.5999 140.783 86.2999C141.083 85.3999 141.383 84.5 141.683 83.7C141.883 83 142.183 82.3 142.483 81.6C142.483 81.5 142.583 81.4 142.683 81.2C142.783 81.1 142.883 81 142.983 81C142.983 81 143.083 81 143.183 81C143.283 81 143.383 81.1 143.483 81.1C143.583 81.1 143.583 81.1999 143.583 81.2999C143.583 81.3999 143.583 81.5 143.583 81.6C143.483 81.9 143.483 82.1 143.383 82.5C143.183 83.6 142.883 85 142.583 86.5C142.283 88 141.783 89.3999 141.183 90.7999C140.583 92.1999 139.883 93.2 138.983 93.9C138.283 94.4 137.483 94.8 136.683 94.9C135.783 95.1 134.783 95 133.783 94.6C132.983 94.3 132.283 93.9 131.683 93.4C131.083 92.9 130.583 92.3 130.183 91.7C129.083 90.2 128.283 88.4 127.983 86.4L127.883 86ZM132.383 82.7C132.383 82.7 132.483 82.7 132.483 82.6C132.483 82.5 132.483 82.6 132.583 82.6C132.683 82.6 132.683 82.5 132.783 82.5C133.383 82 133.883 81.4999 134.183 80.7999C135.083 79.0999 135.583 77.3 135.683 75.4C135.683 75.1 135.683 74.9 135.683 74.6C135.683 74.4 135.583 74.2 135.483 74C134.383 75.3 133.583 76.7 133.183 78.2C132.683 79.6 132.383 81.1 132.383 82.7Z" fill="currentColor"/>
<path d="M148.583 91.2H148.483C147.883 91.3 147.183 91.3 146.683 91.2C146.083 91.1 145.583 90.8 145.083 90.5C143.283 89.3 142.183 87.6999 141.783 85.7999C141.683 85.3999 141.683 84.9 141.683 84.5C141.683 82.5 142.283 80.5999 143.483 78.7999C144.183 77.6999 145.283 76.9 146.683 76.4C146.983 76.3 147.183 76.2 147.483 76.2C148.983 75.9 149.983 76.4 150.683 77.7C150.783 77.9 150.783 78 150.883 78.2C150.983 79 150.783 79.9 150.283 80.9C149.683 81.9 148.783 82.5 147.583 82.9L147.283 83C146.983 83.1 146.683 83.1 146.383 83C146.283 83 146.283 83 146.183 83C146.183 83 146.183 83 146.083 83V83.1C145.983 83.9 145.983 84.7 146.083 85.5L146.183 86C146.283 86.7 146.583 87.3 146.883 87.9C147.183 88.3 147.483 88.5999 147.883 88.7999C148.083 88.8999 148.383 89 148.583 89C148.783 89 148.883 88.8999 149.083 88.7999C149.783 88.2999 150.383 87.7 150.783 87C152.183 84.7 153.383 82.3 154.383 79.9C154.383 79.8 154.483 79.7 154.583 79.6C154.683 79.5 154.783 79.4 154.883 79.4H154.983C155.183 79.4 155.283 79.4 155.383 79.5C155.483 79.6 155.583 79.6999 155.583 79.7999V80C155.483 80.5 155.383 81.1 155.183 81.6C154.383 83.6 153.583 85.6 152.583 87.6L152.483 87.7C152.183 88.3 151.883 88.9 151.483 89.4C150.783 90.3 149.783 90.9 148.583 91.2ZM146.583 80.9C146.883 80.7 147.183 80.4 147.283 80.1C147.483 79.8 147.583 79.5 147.583 79.1C147.183 79.7 146.783 80.3 146.583 80.9Z" fill="currentColor"/>
<path d="M160.483 96.7C159.083 97 157.983 96.7 156.883 96C156.483 95.7 156.183 95.4 155.983 95C155.783 94.6 155.583 94.2 155.583 93.8C155.583 93.5 155.483 93.3 155.483 93C155.483 92.2 155.683 91.4 155.883 90.7C156.183 89.9 156.483 89.2 156.883 88.5C157.083 88.1 157.383 87.6 157.683 87.2L157.883 86.9C157.983 86.8 157.983 86.7 157.983 86.7C157.983 86.6 157.983 86.6 157.883 86.5C157.083 85.6 156.283 84.7 155.583 83.9C155.083 83.3 154.683 82.7 154.383 82.1C154.083 81.5 153.783 80.8 153.683 80.1C153.683 79.9 153.583 79.7 153.583 79.5C153.483 77.7 153.883 76 155.083 74.5C155.583 73.8 156.183 73.3 156.883 72.9C157.583 72.5 158.383 72.2 159.283 72.1C160.383 71.9 161.283 72.1 161.983 72.5C162.683 72.9 163.183 73.5 163.283 74.3C163.383 74.6 163.383 74.9 163.283 75.2C163.183 76 162.783 76.7 162.183 77.4C161.983 77.6 161.883 77.7 161.583 77.9C161.383 78 161.183 78.1 161.083 78.1C160.783 78.2 160.483 78.1 160.283 78C160.083 77.9 159.883 77.7 159.783 77.4L159.683 77.2V76.6C159.683 76.4 159.583 76.3 159.483 76.1C158.983 76.8 158.683 77.5 158.783 78.2L158.883 78.7C158.983 79.2 159.083 79.6 159.383 80C159.683 80.4 159.883 80.8 160.183 81.2L160.883 82C161.083 82.2 161.183 82.3 161.383 82.5C161.483 82.6 161.483 82.6 161.583 82.6C161.683 82.6 161.683 82.5 161.783 82.4C163.083 80.9 164.383 79.5 165.783 78.1C166.283 77.6 166.783 77.2 167.283 76.7C167.483 76.6 167.683 76.5 167.783 76.4C167.983 76.4 168.083 76.4 168.283 76.5C168.383 76.6 168.483 76.7 168.483 76.8C168.483 76.9 168.483 77.1 168.283 77.3C166.483 79.4 164.783 81.5 163.083 83.7C162.983 83.8 162.983 83.9 162.983 84C162.983 84.1 162.983 84.1 163.083 84.2C164.283 85.6 165.083 87.2 165.383 88.9L165.483 89.2C165.783 91.3 165.183 93.3 163.483 95C163.083 95.4 162.683 95.7 162.183 96C161.383 96.4 160.983 96.6 160.483 96.7ZM159.483 93.9C159.583 93.9 159.683 93.8 159.683 93.8C160.083 93.4 160.283 92.9 160.383 92.3C160.383 91.9 160.383 91.4 160.283 91C160.183 90.3 159.883 89.7 159.583 89.1C159.083 90 158.783 91 158.583 91.9C158.483 92.3 158.483 92.7 158.583 93.1V93.2C158.683 93.5 158.883 93.7 159.183 93.9C159.383 93.9 159.483 93.9 159.483 93.9Z" fill="currentColor"/>
</svg>
